<?xml version="1.0" encoding="utf-8"?>
<!-- Generator: Adobe Illustrator 19.1.1, SVG Export Plug-In . SVG Version: 6.00 Build 0)  -->
<svg version="1.1" id="Layer_1" xmlns="http://www.w3.org/2000/svg" xmlns:xlink="http://www.w3.org/1999/xlink" x="0px" y="0px"
	 viewBox="0 0 24 24" style="enable-background:new 0 0 24 24;" xml:space="preserve">
<style type="text/css">
	.dx_darkgray{fill:#787878;}
	.st0{fill:none;}
	.st1{fill:#2648A3;}
	.st2{fill:#FFFFFF;}
</style>
<g>
	<polygon class="st0" points="8,4 8,8 4,8 4,20 15,20 15,19 6,19 6,9 15,9 15,4 	"/>
	<polyline class="dx_darkgray" points="2,22 17,22 17,18 15,18 15,20 4,20 4,8 8,8 8,4 15,4 15,10 17,10 17,2 6,2 2,6 	"/>
	<path class="st1" d="M11,13c0-0.6-0.4-1-1-1v2C10.5,14,11,13.6,11,13z"/>
	<g>
		<path class="st0" d="M12,13c0-1.1-0.9-2-2-2H9v6h1v-1.5l1,1.5h1l-1.4-2.1C11.4,14.6,12,13.9,12,13z"/>
		<polygon class="st0" points="14,11 13,11 13,12 14,12 14,17 15,17 15,12 15,12 16,12 16,11 15,11 15,11 		"/>
		<polygon class="st0" points="17,17 17,17 18,17 18,15 19,15 19,14 18,14 18,12 20,12 20,11 18,11 17,11 17,11 		"/>
		<path class="st1" d="M17,9h-2H6v10h9h2h5V9H17z M12,17h-1l-1-1.5V17H9v-6h1c1.1,0,2,0.9,2,2c0,0.9-0.6,1.6-1.4,1.9L12,17z M16,12
			h-1h0v5h-1v-5h-1v-1h3V12z M20,12h-2v2h1v1h-1v2h-1h0v-6h0h1h2V12z"/>
	</g>
	<rect x="17" y="11" class="st2" width="0" height="6"/>
</g>
</svg>
