<?xml version="1.0" encoding="utf-8"?>
<!-- Generator: Adobe Illustrator 21.1.0, SVG Export Plug-In . SVG Version: 6.00 Build 0)  -->
<svg version="1.1" id="Layer_1" xmlns="http://www.w3.org/2000/svg" xmlns:xlink="http://www.w3.org/1999/xlink" x="0px" y="0px"
	 viewBox="0 0 24 24" enable-background="new 0 0 24 24" xml:space="preserve">
<g>
	<g>
		<g>
			<polygon fill="#787878" points="3,22 18,22 18,18 16,18 16,20 5,20 5,18 3,18 			"/>
			<polygon fill="#787878" points="3,22 18,22 18,18 16,18 16,20 5,20 5,18 3,18 			"/>
		</g>
		<g>
			<polygon fill="#787878" points="18,10 18,2 7,2 3,6 3,10 5,10 5,8 9,8 9,4 16,4 16,10 			"/>
			<polygon fill="#787878" points="18,10 18,2 7,2 3,6 3,10 5,10 5,8 9,8 9,4 16,4 16,10 			"/>
		</g>
	</g>
	<g>
		<g>
			<polygon fill="#787878" points="3,22 18,22 18,18 16,18 16,20 5,20 5,18 3,18 			"/>
		</g>
		<g>
			<polygon fill="#787878" points="18,10 18,2 7,2 3,6 3,10 5,10 5,8 9,8 9,4 16,4 16,10 			"/>
		</g>
	</g>
</g>
<polygon fill="none" points="9,4 9,8 5,8 5,20 16,20 16,19 7,19 7,9 16,9 16,4 "/>
<g>
	<path fill="#3E4751" d="M10,12c-0.6,0-1,0.4-1,1v2c0,0.6,0.4,1,1,1s1-0.4,1-1v-2C11,12.4,10.6,12,10,12z"/>
	<path fill="#3E4751" d="M4,12v4c1.1,0,2-0.9,2-2C6,12.9,5.1,12,4,12z"/>
	<path fill="#3E4751" d="M1,9v10h22V9H1z M4,17H3v-6h1c1.7,0,3,1.3,3,3S5.7,17,4,17z M12,15c0,1.1-0.9,2-2,2s-2-0.9-2-2v-2
		c0-1.1,0.9-2,2-2s2,0.9,2,2V15z M16,12c-1.1,0-2,0.9-2,2c0,1.1,0.9,2,2,2v1c-1.7,0-3-1.3-3-3s1.3-3,3-3V12z M21,17h-1l-1-2l-1,2h-1
		l1.5-3L17,11h1l1,2l1-2h1l-1.5,3L21,17z"/>
</g>
</svg>
