<?xml version="1.0" encoding="utf-8"?>
<!-- Generator: Adobe Illustrator 19.1.1, SVG Export Plug-In . SVG Version: 6.00 Build 0)  -->
<svg version="1.1" id="Layer_1" xmlns="http://www.w3.org/2000/svg" xmlns:xlink="http://www.w3.org/1999/xlink" x="0px" y="0px"
	 viewBox="0 0 16 16" style="enable-background:new 0 0 16 16;" xml:space="preserve">
<style type="text/css">
	.dx_darkgray{fill:#787878;}
</style>
<path class="dx_darkgray" d="M16,4.5C16,2.6,14.4,1,12.5,1S9,2.6,9,4.5c0,1.4,0.8,2.6,2,3.2V14c0,0.6,0.4,1,1,1l2-2v-1l-1-1l1-1V7.7
	C15.2,7.1,16,5.9,16,4.5z M12.5,6C11.7,6,11,5.3,11,4.5S11.7,3,12.5,3S14,3.7,14,4.5S13.3,6,12.5,6z"/>
<path class="dx_darkgray" d="M8.5,6.6C8.3,6.8,7.9,7,7.5,7C6.7,7,6,6.3,6,5.5C6,5.3,6.1,5,6.2,4.8c0.1-0.3,0.4-0.5,0.7-0.7
	C7,4.1,7.3,4,7.5,4C7.7,4,7.9,4,8,4.1c0.1-0.7,0.3-1.3,0.6-1.9C8.3,2.1,7.9,2,7.5,2C5.6,2,4,3.6,4,5.5c0,0.4,0.1,0.9,0.2,1.3L1,10
	l-0.3,0.3c-0.4,0.4-0.4,1,0,1.4L1,12h2l1-1v-1h1l1.3-1.3C6.5,8.8,6.8,8.9,7,9c0.2,0,0.3,0,0.5,0c0.9,0,1.7-0.3,2.3-0.9
	C9.3,7.7,8.8,7.2,8.5,6.6z"/>
</svg>
