<?xml version="1.0" encoding="utf-8"?>
<!-- Generator: Adobe Illustrator 19.1.1, SVG Export Plug-In . SVG Version: 6.00 Build 0)  -->
<svg version="1.1" id="Layer_1" xmlns="http://www.w3.org/2000/svg" xmlns:xlink="http://www.w3.org/1999/xlink" x="0px" y="0px"
	 viewBox="0 0 24 24" style="enable-background:new 0 0 24 24;" xml:space="preserve">
<style type="text/css">
	.dx_gray{fill:#C6C6C6;}
</style>
<g>
	<g>
		<path class="dx_gray" d="M2,22h16V8H2V22z M4,13h12v7H4V13z"/>
		<path class="dx_gray" d="M17,2c-1.6,0-3.1,0.8-4,2l-2-2v5h5l-1.5-1.5C15,4.6,15.9,4,17,4c1.7,0,3,1.3,3,3c0,0.9-0.4,1.7-1,2.2v2.4
			c1.8-0.8,3-2.5,3-4.6C22,4.2,19.8,2,17,2z"/>
	</g>
	<g>
		<path class="dx_gray" d="M2,22h16V8H2V22z M4,13h12v7H4V13z"/>
		<path class="dx_gray" d="M17,2c-1.6,0-3.1,0.8-4,2l-2-2v5h5l-1.5-1.5C15,4.6,15.9,4,17,4c1.7,0,3,1.3,3,3c0,0.9-0.4,1.7-1,2.2v2.4
			c1.8-0.8,3-2.5,3-4.6C22,4.2,19.8,2,17,2z"/>
	</g>
</g>
</svg>
