<?xml version="1.0" encoding="utf-8"?>
<!-- Generator: Adobe Illustrator 19.1.1, SVG Export Plug-In . SVG Version: 6.00 Build 0)  -->
<svg version="1.1" id="Layer_1" xmlns="http://www.w3.org/2000/svg" xmlns:xlink="http://www.w3.org/1999/xlink" x="0px" y="0px"
	 viewBox="0 0 24 24" style="enable-background:new 0 0 24 24;" xml:space="preserve">
<style type="text/css">
	.dx_gray{fill:#C6C6C6;}
	.st0{fill:#FFFFFF;}
</style>
<g>
	<g>
		<path class="dx_gray" d="M17,9V2H6L2,6v16h15v-3h5V9H17z M16,17h-1h0l-1-2l-1,2h-1l1.5-3L12,11h1l1,2l1-2h0h1l-1.5,3L16,17z
			 M15,20H4L4,8h4V4h7v5H6v10h9V20z M8,12v-1h3v1h-1v5H9v-5H8z M20,12h-1v5h-1v-5h-1h0v-1h0h3V12z"/>
		<rect x="17" y="11" class="dx_gray" width="0" height="1"/>
	</g>
	<g>
		<path class="dx_gray" d="M17,9V2H6L2,6v16h15v-3h5V9H17z M16,17h-1h0l-1-2l-1,2h-1l1.5-3L12,11h1l1,2l1-2h0h1l-1.5,3L16,17z
			 M15,20H4L4,8h4V4h7v5H6v10h9V20z M8,12v-1h3v1h-1v5H9v-5H8z M20,12h-1v5h-1v-5h-1h0v-1h0h3V12z"/>
		<rect x="17" y="11" class="st0" width="0" height="1"/>
	</g>
</g>
</svg>
