<?xml version="1.0" encoding="utf-8"?>
<!-- Generator: Adobe Illustrator 19.1.1, SVG Export Plug-In . SVG Version: 6.00 Build 0)  -->
<svg version="1.1" id="Layer_1" xmlns="http://www.w3.org/2000/svg" xmlns:xlink="http://www.w3.org/1999/xlink" x="0px" y="0px"
	 viewBox="0 0 24 24" style="enable-background:new 0 0 24 24;" xml:space="preserve">
<style type="text/css">
	.dx_darkgray{fill:#787878;}
	.st0{fill:#C42424;}
</style>
<g>
	<g>
		<path class="dx_darkgray" d="M10,13c0-0.6-0.4-1-1-1v2C9.6,14,10,13.6,10,13z"/>
		<path class="dx_darkgray" d="M13,12v4c1.1,0,2-0.9,2-2C15,12.9,14.1,12,13,12z"/>
		<g>
			<g>
				<path class="dx_darkgray" d="M16,14c0-0.1,0-0.2,0-0.3v0.5C16,14.2,16,14.1,16,14z"/>
				<g>
					<g>
						<polygon class="dx_darkgray" points="17,12 17,14 17,15 17,17 17,17 17,11 17,11 						"/>
						<polygon class="dx_darkgray" points="17,12 17,14 17,15 17,17 17,17 17,11 17,11 						"/>
					</g>
					<g>
						<polygon class="dx_darkgray" points="15,18 15,20 4,20 4,8 8,8 8,4 15,4 15,10 17,10 17,2 6,2 2,6 2,22 17,22 17,18 						"/>
						<polygon class="dx_darkgray" points="15,18 15,20 4,20 4,8 8,8 8,4 15,4 15,10 17,10 17,2 6,2 2,6 2,22 17,22 17,18 						"/>
					</g>
					<path class="dx_darkgray" d="M6,9v10h16V9H6z M9,15v2H8v-6h1c1.1,0,2,0.9,2,2C11,14.1,10.1,15,9,15z M16,14.3
						c-0.1,0.8-0.4,1.5-1,2c-0.5,0.5-1.2,0.8-2,0.8h-1v-6h1c0.8,0,1.5,0.3,2,0.8c0.5,0.5,0.9,1.2,1,2c0,0.1,0,0.2,0,0.3
						S16,14.2,16,14.3z M20,12h-2v2h1v1h-1v2h0h-1h0v-6h0h3V12z"/>
				</g>
			</g>
		</g>
	</g>
	<g>
		<path class="st0" d="M10,13c0-0.6-0.4-1-1-1v2C9.6,14,10,13.6,10,13z"/>
		<path class="st0" d="M13,12v4c1.1,0,2-0.9,2-2C15,12.9,14.1,12,13,12z"/>
		<g>
			<g>
				<path class="dx_darkgray" d="M16,14c0-0.1,0-0.2,0-0.3v0.5C16,14.2,16,14.1,16,14z"/>
				<g>
					<g>
						<polygon class="dx_darkgray" points="17,12 17,14 17,15 17,17 17,17 17,11 17,11 						"/>
					</g>
					<g>
						<polygon class="dx_darkgray" points="15,18 15,20 4,20 4,8 8,8 8,4 15,4 15,10 17,10 17,2 6,2 2,6 2,22 17,22 17,18 						"/>
					</g>
					<path class="st0" d="M6,9v10h16V9H6z M9,15v2H8v-6h1c1.1,0,2,0.9,2,2C11,14.1,10.1,15,9,15z M16,14.3c-0.1,0.8-0.4,1.5-1,2
						c-0.5,0.5-1.2,0.8-2,0.8h-1v-6h1c0.8,0,1.5,0.3,2,0.8c0.5,0.5,0.9,1.2,1,2c0,0.1,0,0.2,0,0.3S16,14.2,16,14.3z M20,12h-2v2h1v1
						h-1v2h0h-1h0v-6h0h3V12z"/>
				</g>
			</g>
		</g>
	</g>
</g>
</svg>
