<?xml version="1.0" encoding="utf-8"?>
<!-- Generator: Adobe Illustrator 19.1.1, SVG Export Plug-In . SVG Version: 6.00 Build 0)  -->
<svg version="1.1" id="Layer_1" xmlns="http://www.w3.org/2000/svg" xmlns:xlink="http://www.w3.org/1999/xlink" x="0px" y="0px"
	 viewBox="0 0 24 24" style="enable-background:new 0 0 24 24;" xml:space="preserve">
<style type="text/css">
	.dx_gray{fill:#C6C6C6;}
	.st0{fill:none;}
</style>
<g>
	<polygon class="st0" points="8,4 8,8 4,8 4,20 15,20 15,19 6,19 6,9 15,9 15,4 	"/>
</g>
<g>
	<g>
		<path class="dx_gray" d="M17,9V2H6L2,6v16h15v-3h5V9H17z M14,14v3h-1v-6h1v2h1v-2h0h1v6h-1h0v-3H14z M15,20H4V8h4V4h7v5H6v10h9V20
			z M10,15l-1-2v4H8v-6h1l1,2l1-2h1v6h-1v-4L10,15z M20,12h-1v5h-1v-5h-1v-1h1h1h1V12z"/>
	</g>
	<g>
		<path class="dx_gray" d="M17,9V2H6L2,6v16h15v-3h5V9H17z M14,14v3h-1v-6h1v2h1v-2h0h1v6h-1h0v-3H14z M15,20H4V8h4V4h7v5H6v10h9V20
			z M10,15l-1-2v4H8v-6h1l1,2l1-2h1v6h-1v-4L10,15z M20,12h-1v5h-1v-5h-1v-1h1h1h1V12z"/>
	</g>
</g>
</svg>
