<?xml version="1.0" encoding="utf-8"?>
<!-- Generator: Adobe Illustrator 21.1.0, SVG Export Plug-In . SVG Version: 6.00 Build 0)  -->
<svg version="1.1" id="Layer_1" xmlns="http://www.w3.org/2000/svg" xmlns:xlink="http://www.w3.org/1999/xlink" x="0px" y="0px"
	 viewBox="0 0 24 24" style="enable-background:new 0 0 24 24;" xml:space="preserve">
<style type="text/css">
	.dx_gray{fill:#C6C6C6;}
</style>
<path class="dx_gray" d="M21.5,3.5c-2-2-5.1-2-7.1,0c-2,2-2,5.1,0,7.1c0.5,0.5,1,0.8,1.5,1V20c0,1.1,0.9,2,2,2l2-2v-1l-2-2l2-2v-3.4
	c0.6-0.2,1.1-0.6,1.5-1C23.5,8.6,23.5,5.4,21.5,3.5z M19.4,8.4c-0.8,0.8-2,0.8-2.8,0c-0.8-0.8-0.8-2,0-2.8c0.8-0.8,2-0.8,2.8,0
	C20.2,6.4,20.2,7.6,19.4,8.4z"/>
<g>
	<g>
		<path class="dx_gray" d="M13.7,11.1c-0.1,0.1-0.1,0.2-0.2,0.3c-0.8,0.8-2,0.8-2.8,0c-0.8-0.8-0.8-2,0-2.8C11,8.2,11.5,8,12.1,8
			C12,7.7,12,7.3,12,7c0-0.7,0.1-1.4,0.3-2c-1.4-0.1-2.8,0.4-3.9,1.4C7,7.9,6.7,10,7.3,11.7L1,18.6C0.4,19.1,1,20,1,20h4l1-1l0.1-2
			H8l2.3-2.3c1.6,0.6,3.3,0.3,4.7-0.7v-1.8C14.5,11.9,14,11.5,13.7,11.1z"/>
	</g>
	<g>
		<path class="dx_gray" d="M13.7,11.1c-0.1,0.1-0.1,0.2-0.2,0.3c-0.8,0.8-2,0.8-2.8,0c-0.8-0.8-0.8-2,0-2.8C11,8.2,11.5,8,12.1,8
			C12,7.7,12,7.3,12,7c0-0.7,0.1-1.4,0.3-2c-1.4-0.1-2.8,0.4-3.9,1.4C7,7.9,6.7,10,7.3,11.7L1,18.6C0.4,19.1,1,20,1,20h4l1-1l0.1-2
			H8l2.3-2.3c1.6,0.6,3.3,0.3,4.7-0.7v-1.8C14.5,11.9,14,11.5,13.7,11.1z"/>
	</g>
</g>
</svg>
