<?xml version="1.0" encoding="utf-8"?>
<!-- Generator: Adobe Illustrator 19.1.1, SVG Export Plug-In . SVG Version: 6.00 Build 0)  -->
<svg version="1.1" id="Layer_1" xmlns="http://www.w3.org/2000/svg" xmlns:xlink="http://www.w3.org/1999/xlink" x="0px" y="0px"
	 viewBox="0 0 24 24" style="enable-background:new 0 0 24 24;" xml:space="preserve">
<style type="text/css">
	.dx_gray{fill:#C6C6C6;}
</style>
<g>
	<g>
		<rect x="8" y="7" class="dx_gray" width="6" height="1"/>
		<rect x="8" y="11" class="dx_gray" width="6" height="1"/>
		<rect x="8" y="13" class="dx_gray" width="6" height="1"/>
		<rect x="8" y="9" class="dx_gray" width="6" height="1"/>
		<path class="dx_gray" d="M9,22h11V11L9,22z M18,20h-4l4-4V20z"/>
		<rect x="8" y="15" class="dx_gray" width="6" height="1"/>
		<polygon class="dx_gray" points="12,18 6,18 6,6 16,6 16,14 18,12 18,4 14,4 14,2 8,2 8,4 4,4 4,20 10,20 		"/>
	</g>
	<g>
		<rect x="8" y="7" class="dx_gray" width="6" height="1"/>
		<rect x="8" y="11" class="dx_gray" width="6" height="1"/>
		<rect x="8" y="13" class="dx_gray" width="6" height="1"/>
		<rect x="8" y="9" class="dx_gray" width="6" height="1"/>
		<path class="dx_gray" d="M9,22h11V11L9,22z M18,20h-4l4-4V20z"/>
		<rect x="8" y="15" class="dx_gray" width="6" height="1"/>
		<polygon class="dx_gray" points="12,18 6,18 6,6 16,6 16,14 18,12 18,4 14,4 14,2 8,2 8,4 4,4 4,20 10,20 		"/>
	</g>
</g>
</svg>
