<?xml version="1.0" encoding="utf-8"?>
<!-- Generator: Adobe Illustrator 21.1.0, SVG Export Plug-In . SVG Version: 6.00 Build 0)  -->
<svg version="1.1" id="Layer_1" xmlns="http://www.w3.org/2000/svg" xmlns:xlink="http://www.w3.org/1999/xlink" x="0px" y="0px"
	 viewBox="0 0 24 24" enable-background="new 0 0 24 24" xml:space="preserve">
<g>
	<g>
		<path fill="#C6C6C6" d="M10,12c-0.6,0-1,0.4-1,1v2c0,0.6,0.4,1,1,1s1-0.4,1-1v-2C11,12.4,10.6,12,10,12z"/>
		<path fill="#C6C6C6" d="M5,12.3C4.7,12.1,4.4,12,4,12v4c0.4,0,0.7-0.1,1-0.3c0.6-0.3,1-1,1-1.7C6,13.3,5.6,12.6,5,12.3z"/>
		<path fill="#C6C6C6" d="M18,9V2H7L3,6v3H1v10h2v3h15v-3h5V9H18z M5,8h4V4h7v5H5L5,8z M16,16v1c-1.7,0-3-1.3-3-3s1.3-3,3-3v1
			c-1.1,0-2,0.9-2,2C14,15.1,14.9,16,16,16z M12,13v2c0,1.1-0.9,2-2,2s-2-0.9-2-2v-2c0-1.1,0.9-2,2-2S12,11.9,12,13z M4,17H3v-6h1
			c0.4,0,0.7,0.1,1,0.2c1.2,0.4,2,1.5,2,2.8c0,1.3-0.8,2.4-2,2.8C4.7,16.9,4.4,17,4,17z M16,20H5l0-1h11V20z M21,17h-1l-1-2l-1,2h-1
			l1.5-3L17,11h1l1,2l1-2h1l-1.5,3L21,17z"/>
	</g>
	<g>
		<path fill="#C6C6C6" d="M10,12c-0.6,0-1,0.4-1,1v2c0,0.6,0.4,1,1,1s1-0.4,1-1v-2C11,12.4,10.6,12,10,12z"/>
		<path fill="#C6C6C6" d="M5,12.3C4.7,12.1,4.4,12,4,12v4c0.4,0,0.7-0.1,1-0.3c0.6-0.3,1-1,1-1.7C6,13.3,5.6,12.6,5,12.3z"/>
		<path fill="#C6C6C6" d="M18,9V2H7L3,6v3H1v10h2v3h15v-3h5V9H18z M5,8h4V4h7v5H5L5,8z M16,16v1c-1.7,0-3-1.3-3-3s1.3-3,3-3v1
			c-1.1,0-2,0.9-2,2C14,15.1,14.9,16,16,16z M12,13v2c0,1.1-0.9,2-2,2s-2-0.9-2-2v-2c0-1.1,0.9-2,2-2S12,11.9,12,13z M4,17H3v-6h1
			c0.4,0,0.7,0.1,1,0.2c1.2,0.4,2,1.5,2,2.8c0,1.3-0.8,2.4-2,2.8C4.7,16.9,4.4,17,4,17z M16,20H5l0-1h11V20z M21,17h-1l-1-2l-1,2h-1
			l1.5-3L17,11h1l1,2l1-2h1l-1.5,3L21,17z"/>
	</g>
</g>
</svg>
