<?xml version="1.0" encoding="utf-8"?>
<!-- Generator: Adobe Illustrator 19.1.1, SVG Export Plug-In . SVG Version: 6.00 Build 0)  -->
<svg version="1.1" id="Layer_1" xmlns="http://www.w3.org/2000/svg" xmlns:xlink="http://www.w3.org/1999/xlink" x="0px" y="0px"
	 viewBox="0 0 24 24" style="enable-background:new 0 0 24 24;" xml:space="preserve">
<style type="text/css">
	.dx_gray{fill:#C6C6C6;}
</style>
<g>
	<g>
		<g>
			<g>
				<path class="dx_gray" d="M16,14c0-0.1,0-0.2,0-0.3v0.5C16,14.2,16,14.1,16,14z"/>
				<g>
					<polygon class="dx_gray" points="17,12 17,14 17,15 17,17 17,17 17,11 17,11 					"/>
					<g>
						<path class="dx_gray" d="M9,14c0.6,0,1-0.4,1-1c0-0.6-0.4-1-1-1V14z"/>
						<path class="dx_gray" d="M13,12v4c1.1,0,2-0.9,2-2C15,12.9,14.1,12,13,12z"/>
						<path class="dx_gray" d="M17,9V2H6L2,6v16h15v-3h5V9H17z M15,20H4L4,8h4V4h7v5H6v10h9V20z M11,13c0,1.1-0.9,2-2,2v2H8v-6h1
							C10.1,11,11,11.9,11,13z M16,14.3c-0.1,0.8-0.4,1.5-1,2c-0.5,0.5-1.2,0.8-2,0.8h-1v-6h1c0.8,0,1.5,0.3,2,0.8
							c0.5,0.5,0.9,1.2,1,2c0,0.1,0,0.2,0,0.3S16,14.2,16,14.3z M20,12h-2v2h1v1h-1v2h0h-1h0v-6h0h3V12z"/>
					</g>
				</g>
			</g>
		</g>
	</g>
	<g>
		<g>
			<g>
				<path class="dx_gray" d="M16,14c0-0.1,0-0.2,0-0.3v0.5C16,14.2,16,14.1,16,14z"/>
				<g>
					<polygon class="dx_gray" points="17,12 17,14 17,15 17,17 17,17 17,11 17,11 					"/>
					<g>
						<path class="dx_gray" d="M9,14c0.6,0,1-0.4,1-1c0-0.6-0.4-1-1-1V14z"/>
						<path class="dx_gray" d="M13,12v4c1.1,0,2-0.9,2-2C15,12.9,14.1,12,13,12z"/>
						<path class="dx_gray" d="M17,9V2H6L2,6v16h15v-3h5V9H17z M15,20H4L4,8h4V4h7v5H6v10h9V20z M11,13c0,1.1-0.9,2-2,2v2H8v-6h1
							C10.1,11,11,11.9,11,13z M16,14.3c-0.1,0.8-0.4,1.5-1,2c-0.5,0.5-1.2,0.8-2,0.8h-1v-6h1c0.8,0,1.5,0.3,2,0.8
							c0.5,0.5,0.9,1.2,1,2c0,0.1,0,0.2,0,0.3S16,14.2,16,14.3z M20,12h-2v2h1v1h-1v2h0h-1h0v-6h0h3V12z"/>
					</g>
				</g>
			</g>
		</g>
	</g>
</g>
</svg>
