<?xml version="1.0" encoding="utf-8"?>
<!-- Generator: Adobe Illustrator 19.1.1, SVG Export Plug-In . SVG Version: 6.00 Build 0)  -->
<svg version="1.1" id="Layer_1" xmlns="http://www.w3.org/2000/svg" xmlns:xlink="http://www.w3.org/1999/xlink" x="0px" y="0px"
	 viewBox="0 0 24 24" style="enable-background:new 0 0 24 24;" xml:space="preserve">
<style type="text/css">
	.dx_darkgray{fill:#787878;}
	.st0{fill:none;}
	.st1{fill:#1F71D5;}
</style>
<g>
	<polygon class="st0" points="8,4 8,8 4,8 4,20 15,20 15,19 6,19 6,9 15,9 15,4 	"/>
	<polygon class="dx_darkgray" points="15,20 4,20 4,8 8,8 8,4 15,4 15,10 17,10 17,2 6,2 2,6 2,22 17,22 17,18 15,18 	"/>
	<path class="st1" d="M17,9h-2H6v10h9h2h5V9H17z M11,13v1v1v2h-1v-2v-1H9v3H8v-6h1v2h1v-2h1V13z M15,12h-1v5h-1v-5h-1v-1h1h1h1V12z
		 M20,17h-1v-4l-1,2l-1-2l0,0v4h-1v-6h1l0,0l1,2l1-2h1V17z"/>
</g>
</svg>
