<?xml version="1.0" encoding="utf-8"?>
<!-- Generator: Adobe Illustrator 19.1.1, SVG Export Plug-In . SVG Version: 6.00 Build 0)  -->
<svg version="1.1" id="Layer_1" xmlns="http://www.w3.org/2000/svg" xmlns:xlink="http://www.w3.org/1999/xlink" x="0px" y="0px"
	 viewBox="0 0 24 24" style="enable-background:new 0 0 24 24;" xml:space="preserve">
<style type="text/css">
	.dx_orange{fill:#F98506;}
	.dx_darkgray{fill:#787878;}
</style>
<polygon class="dx_darkgray" points="15,20 4,20 4,8 8,8 8,4 15,4 15,10 17,10 17,2 6,2 2,6 2,22 17,22 17,18 15,18 "/>
<path class="dx_orange" d="M17,9h-2H6v10h9h2h5V9H17z M12,17h-1l-1-2l-1,2H8l1.5-3L8,11h1l1,2l1-2h1l-1.5,3L12,17z M17,17h-1v-4
	l-1,2l-1-2v4h-1v-6h1l1,2l1-2h1V17z M20,17h-2v-6h1v5h1V17z"/>
</svg>
