<?xml version="1.0" encoding="utf-8"?>
<!-- Generator: Adobe Illustrator 19.1.1, SVG Export Plug-In . SVG Version: 6.00 Build 0)  -->
<svg version="1.1" id="Layer_1" xmlns="http://www.w3.org/2000/svg" xmlns:xlink="http://www.w3.org/1999/xlink" x="0px" y="0px"
	 viewBox="0 0 16 16" style="enable-background:new 0 0 16 16;" xml:space="preserve">
<style type="text/css">
	.dx_white{fill:#FFFFFF;}
</style>
<g>
	<g>
		<path class="dx_white" d="M0,2v12h16V2H0z M14,12H2V4h12V12z"/>
		<path class="dx_white" d="M3.8,11h2.4C6.6,11,7,10.6,7,10.2V9.8C7,9.4,6.6,9,6.2,9H3.8C3.4,9,3,9.4,3,9.8v0.4
			C3,10.6,3.4,11,3.8,11z"/>
		<path class="dx_white" d="M5,8c0.3,0,1-0.4,1-2c0,0,0,0,0,0c0-0.6-0.4-1-1-1S4,5.4,4,6C4,7.4,4.7,8,5,8z"/>
		<rect x="8" y="6" class="dx_white" width="5" height="1"/>
		<rect x="8" y="9" class="dx_white" width="5" height="1"/>
	</g>
	<g>
		<path class="dx_white" d="M0,2v12h16V2H0z M14,12H2V4h12V12z"/>
		<path class="dx_white" d="M3.8,11h2.4C6.6,11,7,10.6,7,10.2V9.8C7,9.4,6.6,9,6.2,9H3.8C3.4,9,3,9.4,3,9.8v0.4
			C3,10.6,3.4,11,3.8,11z"/>
		<path class="dx_white" d="M5,8c0.3,0,1-0.4,1-2c0,0,0,0,0,0c0-0.6-0.4-1-1-1S4,5.4,4,6C4,7.4,4.7,8,5,8z"/>
		<rect x="8" y="6" class="dx_white" width="5" height="1"/>
		<rect x="8" y="9" class="dx_white" width="5" height="1"/>
	</g>
</g>
</svg>
