<?xml version="1.0" encoding="utf-8"?>
<!-- Generator: Adobe Illustrator 21.0.0, SVG Export Plug-In . SVG Version: 6.00 Build 0)  -->
<svg version="1.1" id="Layer_1" xmlns="http://www.w3.org/2000/svg" xmlns:xlink="http://www.w3.org/1999/xlink" x="0px" y="0px"
	 viewBox="0 0 16 16" style="enable-background:new 0 0 16 16;" xml:space="preserve">
<style type="text/css">
	.dx_white{fill:#FFFFFF;}
</style>
<g>
	<path class="dx_white" d="M10,0v6h6C16,2.7,13.3,0,10,0z"/>
	<path class="dx_white" d="M9,1C5.7,1,3,3.7,3,7c0,0,0,0.1,0,0.1C3.3,7,3.7,7,4,7c2.8,0,5,2.2,5,5c0,0.3,0,0.7-0.1,1c0,0,0.1,0,0.1,0c3.3,0,6-2.7,6-6
		H9V1z"/>
	<path class="dx_white" d="M4,8c-2.2,0-4,1.8-4,4s1.8,4,4,4s4-1.8,4-4S6.2,8,4,8z M5,12v-1H4v-1H3v2H1c0-1.7,1.3-3,3-3s3,1.3,3,3H5z"/>
</g>
</svg>
