<?xml version="1.0" encoding="utf-8"?>
<!-- Generator: Adobe Illustrator 21.1.0, SVG Export Plug-In . SVG Version: 6.00 Build 0)  -->
<svg version="1.1" id="Layer_1" xmlns="http://www.w3.org/2000/svg" xmlns:xlink="http://www.w3.org/1999/xlink" x="0px" y="0px"
	 viewBox="0 0 16 16" enable-background="new 0 0 16 16" xml:space="preserve">
<path fill="#2C86D3" d="M10,0C8.3,0,7,1.3,7,3v1h2V3c0-0.6,0.4-1,1-1s1,0.4,1,1v6c0,0.6-0.4,1-1,1S9,9.6,9,9V6H7v3c0,1.7,1.3,3,3,3
	s3-1.3,3-3V3C13,1.3,11.7,0,10,0z"/>
<g>
	<polygon fill="none" points="13,5 11,5 11,6 10,6 10,5 5,5 5,8 2,8 2,14 14,14 14,6 13,6 	"/>
	<rect x="13" y="5" fill="#FFFFFF" width="1" height="1"/>
	<polygon fill="#787878" points="14,3 14,5 14,6 14,14 2,14 2,8 5,8 5,5 10,5 10,3 3,3 0,6 0,16 16,16 16,3 	"/>
</g>
</svg>
