<?xml version="1.0" encoding="utf-8"?>
<!-- Generator: Adobe Illustrator 19.1.1, SVG Export Plug-In . SVG Version: 6.00 Build 0)  -->
<svg version="1.1" id="Layer_1" xmlns="http://www.w3.org/2000/svg" xmlns:xlink="http://www.w3.org/1999/xlink" x="0px" y="0px"
	 viewBox="0 0 16 16" style="enable-background:new 0 0 16 16;" xml:space="preserve">
<style type="text/css">
	.dx_white{fill:#FFFFFF;}
</style>
<g>
	<path class="dx_white" d="M7,8c1.4,0,3-2.1,3-5c0-1.7-1.3-3-3-3S4,1.3,4,3C4,5.9,5.6,8,7,8z"/>
	<path class="dx_white" d="M7,9v7h9V9H7z M14,14H9v-3h5V14z"/>
	<path class="dx_white" d="M4,9c-2.2,0-4,1.8-4,4c0,0.5,0.5,1,1,1h5v-3.3L5,9H4z"/>
	<rect x="10" y="12" class="dx_white" width="3" height="1"/>
</g>
</svg>
