<?xml version="1.0" encoding="utf-8"?>
<!-- Generator: Adobe Illustrator 19.1.1, SVG Export Plug-In . SVG Version: 6.00 Build 0)  -->
<svg version="1.1" id="Layer_1" xmlns="http://www.w3.org/2000/svg" xmlns:xlink="http://www.w3.org/1999/xlink" x="0px" y="0px"
	 viewBox="0 0 16 16" style="enable-background:new 0 0 16 16;" xml:space="preserve">
<style type="text/css">
	.dx_darkgray{fill:#787878;}
	.dx_blue{fill:#2C86D3;}
	.st0{fill:#747474;}
</style>
<g>
	<path class="dx_blue" d="M4,16h12"/>
</g>
<path class="dx_darkgray" d="M10,3c0-1.7-1.3-3-3-3S4,1.3,4,3c0,2.9,1.6,5,3,5S10,5.9,10,3z"/>
<path class="dx_blue" d="M7,9v7h9V9H7z M14,14H9v-3h5V14z"/>
<g>
	<g>
		<path class="dx_darkgray" d="M6,10.7L5,9H4c-2.2,0-4,1.8-4,4c0,0.5,0.5,1,1,1h5v-2.5V10.7z"/>
	</g>
	<g>
		<path class="st0" d="M6,10.7L5,9H4c-2.2,0-4,1.8-4,4c0,0.5,0.5,1,1,1h5v-2.5V10.7z"/>
	</g>
</g>
<rect x="10" y="12" class="dx_blue" width="3" height="1"/>
</svg>
