<?xml version="1.0" encoding="utf-8"?>
<!-- Generator: Adobe Illustrator 21.1.0, SVG Export Plug-In . SVG Version: 6.00 Build 0)  -->
<svg version="1.1" id="Layer_1" xmlns="http://www.w3.org/2000/svg" xmlns:xlink="http://www.w3.org/1999/xlink" x="0px" y="0px"
	 viewBox="0 0 24 24" enable-background="new 0 0 24 24" xml:space="preserve">
<path fill="#C6C6C6" d="M3,3v18h18V3H3z M6.5,5C7.3,5,8,5.7,8,6.5S7.3,8,6.5,8S5,7.3,5,6.5S5.7,5,6.5,5z M19,19H5v-9h14V19z M17.5,8
	C16.7,8,16,7.3,16,6.5S16.7,5,17.5,5S19,5.7,19,6.5S18.3,8,17.5,8z"/>
<rect x="6" y="11" fill="#C6C6C6" width="12" height="1"/>
<rect x="6" y="13" fill="#C6C6C6" width="12" height="1"/>
<rect x="6" y="15" fill="#C6C6C6" width="12" height="1"/>
<rect x="6" y="17" fill="#C6C6C6" width="6" height="1"/>
</svg>
