<?xml version="1.0" encoding="utf-8"?>
<!-- Generator: Adobe Illustrator 19.1.1, SVG Export Plug-In . SVG Version: 6.00 Build 0)  -->
<svg version="1.1" id="Layer_1" xmlns="http://www.w3.org/2000/svg" xmlns:xlink="http://www.w3.org/1999/xlink" x="0px" y="0px"
	 viewBox="0 0 16 16" style="enable-background:new 0 0 16 16;" xml:space="preserve">
<style type="text/css">
	.dx_white{fill:#FFFFFF;}
</style>
<circle class="dx_white" cx="2.5" cy="13.5" r="1.5"/>
<g>
	<g>
		<path class="dx_white" d="M9.5,6C7,6,5,8,5,10.5S7,15,9.5,15s4.5-2,4.5-4.5S12,6,9.5,6z M10,14H9v-1h1V14z M11.3,9.3
			c-0.1,0.2-0.4,0.5-0.9,0.9C10.2,10.4,10,10.7,10,11c0,0.2,0,1,0,1H9c0-0.1,0-1,0-1c0-0.3,0.1-0.6,0.2-0.8s0.3-0.4,0.6-0.7
			s0.5-0.4,0.6-0.5c0.1-0.1,0.1-0.3,0.1-0.4c0-0.2-0.1-0.4-0.3-0.5S9.8,7.8,9.5,7.8C9.3,7.8,9,7.9,8.8,8.1S8.4,8.5,8.4,9l-1,0
			c0-0.7,0.2-1.2,0.6-1.5S8.9,7,9.5,7c0.6,0,1.1,0.2,1.5,0.5s0.6,0.7,0.6,1.2C11.6,8.9,11.5,9.1,11.3,9.3z"/>
	</g>
	<g>
		<path class="dx_white" d="M9.5,6C7,6,5,8,5,10.5S7,15,9.5,15s4.5-2,4.5-4.5S12,6,9.5,6z M10,14H9v-1h1V14z M11.3,9.3
			c-0.1,0.2-0.4,0.5-0.9,0.9C10.2,10.4,10,10.7,10,11c0,0.2,0,1,0,1H9c0-0.1,0-1,0-1c0-0.3,0.1-0.6,0.2-0.8s0.3-0.4,0.6-0.7
			s0.5-0.4,0.6-0.5c0.1-0.1,0.1-0.3,0.1-0.4c0-0.2-0.1-0.4-0.3-0.5S9.8,7.8,9.5,7.8C9.3,7.8,9,7.9,8.8,8.1S8.4,8.5,8.4,9l-1,0
			c0-0.7,0.2-1.2,0.6-1.5S8.9,7,9.5,7c0.6,0,1.1,0.2,1.5,0.5s0.6,0.7,0.6,1.2C11.6,8.9,11.5,9.1,11.3,9.3z"/>
	</g>
</g>
<g>
	<g>
		<path class="dx_white" d="M4.2,9H1v2h3c0-0.2,0-0.3,0-0.5C4,10,4.1,9.5,4.2,9z"/>
		<path class="dx_white" d="M16,3V1h-3l-1.6,4.3c0.5,0.2,1,0.5,1.5,0.8L14,3H16z"/>
		<path class="dx_white" d="M9.5,5c0.2,0,0.5,0,0.7,0L11,3H0l2,5h2.6C5.5,6.2,7.4,5,9.5,5z"/>
	</g>
	<g>
		<path class="dx_white" d="M4.2,9H1v2h3c0-0.2,0-0.3,0-0.5C4,10,4.1,9.5,4.2,9z"/>
		<path class="dx_white" d="M16,3V1h-3l-1.6,4.3c0.5,0.2,1,0.5,1.5,0.8L14,3H16z"/>
		<path class="dx_white" d="M9.5,5c0.2,0,0.5,0,0.7,0L11,3H0l2,5h2.6C5.5,6.2,7.4,5,9.5,5z"/>
	</g>
</g>
</svg>
