<?xml version="1.0" encoding="utf-8"?>
<!-- Generator: Adobe Illustrator 19.1.1, SVG Export Plug-In . SVG Version: 6.00 Build 0)  -->
<svg version="1.1" id="Layer_1" xmlns="http://www.w3.org/2000/svg" xmlns:xlink="http://www.w3.org/1999/xlink" x="0px" y="0px"
	 viewBox="0 0 16 16" style="enable-background:new 0 0 16 16;" xml:space="preserve">
<style type="text/css">
	.dx_darkgray{fill:#787878;}
</style>
<g>
	<g>
		<g>
			<g>
				<path class="dx_darkgray" d="M11,2V0H5v2H2v14h12V2H11z M12,14H4V4h8V14z"/>
			</g>
			<g>
				<path class="dx_darkgray" d="M11,2V0H5v2H2v14h12V2H11z M12,14H4V4h8V14z"/>
			</g>
		</g>
		<g>
			<rect x="6" y="5" class="dx_darkgray" width="4" height="1"/>
			<rect x="6" y="5" class="dx_darkgray" width="4" height="1"/>
		</g>
		<g>
			<rect x="6" y="7" class="dx_darkgray" width="4" height="1"/>
			<rect x="6" y="7" class="dx_darkgray" width="4" height="1"/>
		</g>
		<g>
			<rect x="6" y="9" class="dx_darkgray" width="4" height="1"/>
			<rect x="6" y="9" class="dx_darkgray" width="4" height="1"/>
		</g>
		<g>
			<rect x="6" y="11" class="dx_darkgray" width="4" height="1"/>
			<rect x="6" y="11" class="dx_darkgray" width="4" height="1"/>
		</g>
	</g>
	<g>
		<g>
			<g>
				<path class="dx_darkgray" d="M11,2V0H5v2H2v14h12V2H11z M12,14H4V4h8V14z"/>
			</g>
		</g>
		<g>
			<rect x="6" y="5" class="dx_darkgray" width="4" height="1"/>
		</g>
		<g>
			<rect x="6" y="7" class="dx_darkgray" width="4" height="1"/>
		</g>
		<g>
			<rect x="6" y="9" class="dx_darkgray" width="4" height="1"/>
		</g>
		<g>
			<rect x="6" y="11" class="dx_darkgray" width="4" height="1"/>
		</g>
	</g>
</g>
</svg>
