<?xml version="1.0" encoding="utf-8"?>
<!-- Generator: Adobe Illustrator 21.1.0, SVG Export Plug-In . SVG Version: 6.00 Build 0)  -->
<svg version="1.1" id="Layer_1" xmlns="http://www.w3.org/2000/svg" xmlns:xlink="http://www.w3.org/1999/xlink" x="0px" y="0px"
	 viewBox="0 0 50 50" style="enable-background:new 0 0 50 50;" xml:space="preserve">
<style type="text/css">
	.dx_darkgray{fill:#787878;}
</style>
<g>
	<g>
		<path class="dx_darkgray" d="M30.4,28H28l-7,7l-7-7l0,0C6.3,28,0,32.3,0,40v1c0,1.1,0.9,2,2,2h34v-8.2C33.3,33.4,31.3,31,30.4,28z
			"/>
	</g>
	<g>
		<path class="dx_darkgray" d="M30.4,28H28l-7,7l-7-7l0,0C6.3,28,0,32.3,0,40v1c0,1.1,0.9,2,2,2h34v-8.2C33.3,33.4,31.3,31,30.4,28z
			"/>
	</g>
</g>
<path class="dx_darkgray" d="M18.1,41.8"/>
<path class="dx_darkgray" d="M21,2c-5,0-9,4-9,9c0,8,5,15,9,15s9-7,9-15C30,6,26,2,21,2z"/>
<path class="dx_darkgray" d="M50,25c0-5-4-9-9-9s-9,4-9,9c0,3.9,2.5,7.2,6,8.5V45c0,1.7,1.3,3,3,3l3-3v-2l-2-2l2-2v-5.5
	C47.5,32.2,50,28.9,50,25z M41,28c-1.7,0-3-1.3-3-3s1.3-3,3-3s3,1.3,3,3S42.7,28,41,28z"/>
</svg>
