<?xml version="1.0" encoding="utf-8"?>
<!-- Generator: Adobe Illustrator 19.1.1, SVG Export Plug-In . SVG Version: 6.00 Build 0)  -->
<svg version="1.1" id="Layer_1" xmlns="http://www.w3.org/2000/svg" xmlns:xlink="http://www.w3.org/1999/xlink" x="0px" y="0px"
	 viewBox="0 0 16 16" style="enable-background:new 0 0 16 16;" xml:space="preserve">
<style type="text/css">
	.dx_darkgray{fill:#787878;}
</style>
<g>
	<g>
		<path class="dx_darkgray" d="M12,3V1h-2v2H6V1H4v2H1v12h14V3H12z M13,13H3V6h10V13z"/>
		<rect x="4" y="7" class="dx_darkgray" width="2" height="2"/>
		<rect x="4" y="10" class="dx_darkgray" width="2" height="2"/>
		<rect x="7" y="7" class="dx_darkgray" width="2" height="2"/>
		<rect x="7" y="10" class="dx_darkgray" width="2" height="2"/>
		<rect x="10" y="7" class="dx_darkgray" width="2" height="2"/>
		<rect x="10" y="10" class="dx_darkgray" width="2" height="2"/>
	</g>
	<g>
		<path class="dx_darkgray" d="M12,3V1h-2v2H6V1H4v2H1v12h14V3H12z M13,13H3V6h10V13z"/>
		<rect x="4" y="7" class="dx_darkgray" width="2" height="2"/>
		<rect x="4" y="10" class="dx_darkgray" width="2" height="2"/>
		<rect x="7" y="7" class="dx_darkgray" width="2" height="2"/>
		<rect x="7" y="10" class="dx_darkgray" width="2" height="2"/>
		<rect x="10" y="7" class="dx_darkgray" width="2" height="2"/>
		<rect x="10" y="10" class="dx_darkgray" width="2" height="2"/>
	</g>
</g>
</svg>
