<?xml version="1.0" encoding="utf-8"?>
<!-- Generator: Adobe Illustrator 21.1.0, SVG Export Plug-In . SVG Version: 6.00 Build 0)  -->
<svg version="1.1" id="Layer_1" xmlns="http://www.w3.org/2000/svg" xmlns:xlink="http://www.w3.org/1999/xlink" x="0px" y="0px"
	 viewBox="0 0 16 16" enable-background="new 0 0 16 16" xml:space="preserve">
<g>
	<g>
		<path fill="#787878" d="M7,5l4-4H0l4,4v6l2.1-1.4C6.2,8.8,6.5,8,7,7.3V5z"/>
	</g>
	<g>
		<path fill="#787878" d="M7,5l4-4H0l4,4v6l2.1-1.4C6.2,8.8,6.5,8,7,7.3V5z"/>
	</g>
</g>
<g>
	<g>
		<path fill="#2D9D54" d="M11.5,6C9,6,7,8,7,10.5S9,15,11.5,15s4.5-2,4.5-4.5S14,6,11.5,6z M12,12l-1,1l-2.5-2.5l1-1L11,11l2.5-2.5
			l1,1L12,12z"/>
	</g>
	<g>
		<path fill="#2D9D54" d="M11.5,6C9,6,7,8,7,10.5S9,15,11.5,15s4.5-2,4.5-4.5S14,6,11.5,6z M12,12l-1,1l-2.5-2.5l1-1L11,11l2.5-2.5
			l1,1L12,12z"/>
	</g>
</g>
</svg>
