<?xml version="1.0" encoding="utf-8"?>
<!-- Generator: Adobe Illustrator 19.1.1, SVG Export Plug-In . SVG Version: 6.00 Build 0)  -->
<svg version="1.1" id="Layer_1" xmlns="http://www.w3.org/2000/svg" xmlns:xlink="http://www.w3.org/1999/xlink" x="0px" y="0px"
	 viewBox="0 0 16 16" style="enable-background:new 0 0 16 16;" xml:space="preserve">
<style type="text/css">
	.dx_white{fill:#FFFFFF;}
</style>
<g>
	<g>
		<path class="dx_white" d="M7,9c1.4,0,3-2.1,3-5c0-1.7-1.3-3-3-3S4,2.3,4,4C4,6.9,5.6,9,7,9z"/>
		<path class="dx_white" d="M9.6,10H9l-2,2l-2-2H4c-2.2,0-4,1.8-4,4c0,0.5,0.5,1,1,1h10v-3.5C10.4,11.1,9.9,10.6,9.6,10z"/>
		<path class="dx_white" d="M16,8c0-1.7-1.3-3-3-3s-3,1.3-3,3c0,1.3,0.8,2.4,2,2.8V14c0,0.6,0.4,1,1,1l1-1v-3.2
			C15.2,10.4,16,9.3,16,8z M13,7c0.6,0,1,0.4,1,1c0,0.6-0.4,1-1,1s-1-0.4-1-1C12,7.4,12.4,7,13,7z"/>
	</g>
	<g>
		<path class="dx_white" d="M7,9c1.4,0,3-2.1,3-5c0-1.7-1.3-3-3-3S4,2.3,4,4C4,6.9,5.6,9,7,9z"/>
		<path class="dx_white" d="M9.6,10H9l-2,2l-2-2H4c-2.2,0-4,1.8-4,4c0,0.5,0.5,1,1,1h10v-3.5C10.4,11.1,9.9,10.6,9.6,10z"/>
		<path class="dx_white" d="M16,8c0-1.7-1.3-3-3-3s-3,1.3-3,3c0,1.3,0.8,2.4,2,2.8V14c0,0.6,0.4,1,1,1l1-1v-3.2
			C15.2,10.4,16,9.3,16,8z M13,7c0.6,0,1,0.4,1,1c0,0.6-0.4,1-1,1s-1-0.4-1-1C12,7.4,12.4,7,13,7z"/>
	</g>
</g>
</svg>
