<?xml version="1.0" encoding="utf-8"?>
<!-- Generator: Adobe Illustrator 19.1.1, SVG Export Plug-In . SVG Version: 6.00 Build 0)  -->
<svg version="1.1" id="Layer_1" xmlns="http://www.w3.org/2000/svg" xmlns:xlink="http://www.w3.org/1999/xlink" x="0px" y="0px"
	 viewBox="0 0 16 16" style="enable-background:new 0 0 16 16;" xml:space="preserve">
<style type="text/css">
	.dx_white{fill:#FFFFFF;}
</style>
<g>
	<g>
		<polygon class="dx_white" points="2,3 10,3 10,4 12,4 12,1 0,1 0,12 3,12 3,10 2,10 		"/>
		<path class="dx_white" d="M4,5v10h12V5H4z M14,13H6V8h8V13z"/>
		<rect x="7" y="9" class="dx_white" width="2" height="1"/>
		<path class="dx_white" d="M10,12h3V9h-3V12z M11,10h1v1h-1V10z"/>
	</g>
	<g>
		<polygon class="dx_white" points="2,3 10,3 10,4 12,4 12,1 0,1 0,12 3,12 3,10 2,10 		"/>
		<path class="dx_white" d="M4,5v10h12V5H4z M14,13H6V8h8V13z"/>
		<rect x="7" y="9" class="dx_white" width="2" height="1"/>
		<path class="dx_white" d="M10,12h3V9h-3V12z M11,10h1v1h-1V10z"/>
	</g>
</g>
</svg>
