<?xml version="1.0" encoding="utf-8"?>
<!-- Generator: Adobe Illustrator 19.1.1, SVG Export Plug-In . SVG Version: 6.00 Build 0)  -->
<svg version="1.1" id="Layer_1" xmlns="http://www.w3.org/2000/svg" xmlns:xlink="http://www.w3.org/1999/xlink" x="0px" y="0px"
	 viewBox="0 0 16 16" style="enable-background:new 0 0 16 16;" xml:space="preserve">
<style type="text/css">
	.dx_darkgray{fill:#787878;}
	.dx_blue{fill:#2C86D3;}
</style>
<g>
	<polygon class="dx_darkgray" points="2,3 10,3 10,4 12,4 12,1 0,1 0,12 3,12 3,10 2,10 	"/>
	<g>
		<g>
			<path class="dx_darkgray" d="M4,5v10h12V5H4z M14,13H6V8h8V13z"/>
			<rect x="7" y="9" class="dx_darkgray" width="2" height="1"/>
			<path class="dx_darkgray" d="M13,9h-3v3h3V9z M12,11h-1v-1h1V11z"/>
		</g>
		<g>
			<path class="dx_blue" d="M4,5v10h12V5H4z M14,13H6V8h8V13z"/>
			<rect x="7" y="9" class="dx_blue" width="2" height="1"/>
			<path class="dx_blue" d="M13,9h-3v3h3V9z M12,11h-1v-1h1V11z"/>
		</g>
	</g>
</g>
</svg>
