<?xml version="1.0" encoding="utf-8"?>
<!-- Generator: Adobe Illustrator 21.1.0, SVG Export Plug-In . SVG Version: 6.00 Build 0)  -->
<svg version="1.1" id="Layer_1" xmlns="http://www.w3.org/2000/svg" xmlns:xlink="http://www.w3.org/1999/xlink" x="0px" y="0px"
	 viewBox="0 0 16 16" enable-background="new 0 0 16 16" xml:space="preserve">
<path fill="#C6C6C6" d="M9,7V3H7v5c0,0.6,0.4,1,1,1h4V7H9z"/>
<g>
	<g>
		<path fill="#787878" d="M8,0C3.6,0,0,3.6,0,8c0,4.4,3.6,8,8,8s8-3.6,8-8C16,3.6,12.4,0,8,0z M8,14c-3.3,0-6-2.7-6-6
			c0-3.3,2.7-6,6-6s6,2.7,6,6C14,11.3,11.3,14,8,14z"/>
	</g>
	<g>
		<path fill="#C6C6C6" d="M8,0C3.6,0,0,3.6,0,8c0,4.4,3.6,8,8,8s8-3.6,8-8C16,3.6,12.4,0,8,0z M8,14c-3.3,0-6-2.7-6-6
			c0-3.3,2.7-6,6-6s6,2.7,6,6C14,11.3,11.3,14,8,14z"/>
	</g>
</g>
</svg>
