<?xml version="1.0" encoding="utf-8"?>
<!-- Generator: Adobe Illustrator 21.1.0, SVG Export Plug-In . SVG Version: 6.00 Build 0)  -->
<svg version="1.1" id="Layer_1" xmlns="http://www.w3.org/2000/svg" xmlns:xlink="http://www.w3.org/1999/xlink" x="0px" y="0px"
	 viewBox="0 0 16 16" enable-background="new 0 0 16 16" xml:space="preserve">
<g>
	<g>
		<polygon fill="#787878" points="2,9 2,3 10,3 10,7 12,5 12,1 0,1 0,11 6,11 8,9 		"/>
	</g>
	<g>
		<polygon fill="#787878" points="2,9 2,3 10,3 10,7 12,5 12,1 0,1 0,11 6,11 8,9 		"/>
	</g>
</g>
<path fill="#F98506" d="M13,6l-1,1l-2,2l-1,1l-2,2v3h3l2-2l1-1l2-2l1-1L13,6z M9,14l-1-1l3-3l1,1L9,14z M13,10l-1-1l1-1l1,1L13,10z"
	/>
</svg>
