<?xml version="1.0" encoding="utf-8"?>
<!-- Generator: Adobe Illustrator 21.1.0, SVG Export Plug-In . SVG Version: 6.00 Build 0)  -->
<svg version="1.1" id="Layer_1" xmlns="http://www.w3.org/2000/svg" xmlns:xlink="http://www.w3.org/1999/xlink" x="0px" y="0px"
	 viewBox="0 0 24 24" enable-background="new 0 0 24 24" xml:space="preserve">
<path fill="#787878" d="M7,9V7c0-1.1,0.9-2,2-2h1V3H9C6.8,3,5,4.8,5,7v2c0,1.1-0.9,2-2,2v2c1.1,0,2,0.9,2,2v2c0,2.2,1.8,4,4,4h1v-2
	H9c-1.1,0-2-0.9-2-2v-2c0-1.2-0.5-2.3-1.4-3C6.5,11.3,7,10.2,7,9z"/>
<path fill="#787878" d="M19,9V7c0-2.2-1.8-4-4-4h-1v2h1c1.1,0,2,0.9,2,2v2c0,1.2,0.5,2.3,1.4,3c-0.8,0.7-1.4,1.8-1.4,3v2
	c0,1.1-0.9,2-2,2h-1v2h1c2.2,0,4-1.8,4-4v-2c0-1.1,0.9-2,2-2v-2C19.9,11,19,10.1,19,9z"/>
</svg>
