<?xml version="1.0" encoding="utf-8"?>
<!-- Generator: Adobe Illustrator 19.1.1, SVG Export Plug-In . SVG Version: 6.00 Build 0)  -->
<svg version="1.1" id="Layer_1" xmlns="http://www.w3.org/2000/svg" xmlns:xlink="http://www.w3.org/1999/xlink" x="0px" y="0px"
	 viewBox="0 0 24 24" style="enable-background:new 0 0 24 24;" xml:space="preserve">
<style type="text/css">
	.dx_darkgray{fill:#787878;}
	.st0{fill:none;}
	.st1{fill:#05815D;}
	.st2{fill:#FFFFFF;}
</style>
<g>
	<polygon class="st0" points="16,4 9,4 9,8 5,8 5,9 16,9 	"/>
	<rect x="5" y="19" class="st0" width="11" height="1"/>
	<g>
		<polygon class="dx_darkgray" points="7,2 3,6 3,10 5,10 5,8 9,8 9,4 16,4 16,10 18,10 18,2 		"/>
		<polygon class="dx_darkgray" points="16,20 5,20 5,18 3,18 3,22 18,22 18,18 16,18 		"/>
	</g>
	<path class="st1" d="M18,9h-2H5H3H2v10h1h2h11h2h4V9H18z M8,17H7l-1-2l-1,2l0,0H4l1-2l0.5-1L5,13l-1-2h1l0,0l1,2l1-2h1l-1.5,3L8,17
		z M11,17h-1H9v-1v-5h1v5h1V17z M14,17h-2v-1h2c0.6,0,1-0.2,1-0.7c0-1.2-2.8-0.6-3-2.3v0c-0.1-1.5,0.8-2,2-2h1v1h-1
		c-0.7,0-1.1,0.2-1,0.8c0.1,0.7,2.7,0.5,3,2c0,0.1,0,0.1,0,0.2c0,0.1,0,0.2,0,0.3C15.9,16.6,15.1,17,14,17z M20,17h-1l-1-2l-1,2h-1
		h0l0,0l1.5-3L16,11l0,0h0h1l1,2l1-2h1l-1.5,3L20,17z"/>
	<polygon class="st2" points="16,11 16,11 16,11 	"/>
	<polygon class="st2" points="16,17 16,17 16,17 	"/>
	<path class="st2" d="M16,14.8v0.5c0-0.1,0-0.2,0-0.3C16,14.9,16,14.9,16,14.8z"/>
</g>
</svg>
