<?xml version="1.0" encoding="utf-8"?>
<!-- Generator: Adobe Illustrator 21.1.0, SVG Export Plug-In . SVG Version: 6.00 Build 0)  -->
<svg version="1.1" id="Layer_1" xmlns="http://www.w3.org/2000/svg" xmlns:xlink="http://www.w3.org/1999/xlink" x="0px" y="0px"
	 viewBox="0 0 16 16" enable-background="new 0 0 16 16" xml:space="preserve">
<g>
	<g>
		<path fill="#FFFFFF" d="M8.3,7H4v1h3.3C7.6,7.6,7.9,7.3,8.3,7z"/>
		<path fill="#FFFFFF" d="M4,9v1h2.2c0.1-0.3,0.2-0.7,0.4-1H4z"/>
		<path fill="#FFFFFF" d="M6,11H3V6h7v0.2C10.5,6.1,11,6,11.5,6s1,0.1,1.5,0.2V2l-2-2h-1v4H3V0H0v13h6.2C6.1,12.5,6,12,6,11.5
			C6,11.3,6,11.2,6,11z"/>
	</g>
	<g>
		<path fill="#FFFFFF" d="M8.3,7H4v1h3.3C7.6,7.6,7.9,7.3,8.3,7z"/>
		<path fill="#FFFFFF" d="M4,9v1h2.2c0.1-0.3,0.2-0.7,0.4-1H4z"/>
		<path fill="#FFFFFF" d="M6,11H3V6h7v0.2C10.5,6.1,11,6,11.5,6s1,0.1,1.5,0.2V2l-2-2h-1v4H3V0H0v13h6.2C6.1,12.5,6,12,6,11.5
			C6,11.3,6,11.2,6,11z"/>
	</g>
</g>
<rect x="6" fill="#FFFFFF" width="3" height="3"/>
<path fill="#FFFFFF" d="M11.5,7C9,7,7,9,7,11.5S9,16,11.5,16s4.5-2,4.5-4.5S14,7,11.5,7z M12,15h-1v-1h1V15z M13.3,10.3
	c-0.1,0.2-0.4,0.5-0.9,0.9C12.2,11.4,12,11.7,12,12c0,0.2,0,1,0,1h-1c0-0.1,0-1,0-1c0-0.3,0.1-0.6,0.2-0.8s0.3-0.4,0.6-0.7
	s0.5-0.4,0.6-0.5c0.1-0.1,0.1-0.3,0.1-0.4c0-0.2-0.1-0.4-0.3-0.5s-0.4-0.2-0.7-0.2c-0.3,0-0.6,0.1-0.8,0.2s-0.4,0.5-0.4,0.9l-1,0
	c0-0.7,0.2-1.2,0.6-1.5S10.9,8,11.5,8c0.6,0,1.1,0.2,1.5,0.5s0.6,0.7,0.6,1.2C13.6,9.9,13.5,10.1,13.3,10.3z"/>
</svg>
