<?xml version="1.0" encoding="utf-8"?>
<!-- Generator: Adobe Illustrator 19.1.1, SVG Export Plug-In . SVG Version: 6.00 Build 0)  -->
<svg version="1.1" id="Layer_1" xmlns="http://www.w3.org/2000/svg" xmlns:xlink="http://www.w3.org/1999/xlink" x="0px" y="0px"
	 viewBox="0 0 24 24" style="enable-background:new 0 0 24 24;" xml:space="preserve">
<style type="text/css">
	.dx_darkgray{fill:#787878;}
	.st0{fill:none;}
	.st1{fill:#0A95B3;}
</style>
<g>
	<polygon class="st0" points="8,4 8,8 4,8 4,20 15,20 15,19 6,19 6,9 15,9 15,4 	"/>
	<polygon class="dx_darkgray" points="15,20 4,20 4,8 8,8 8,4 15,4 15,10 17,10 17,2 6,2 2,6 2,22 17,22 17,18 15,18 	"/>
	<path class="st1" d="M15,15.1v0.3c0,0,0-0.1,0-0.1C15,15.2,15,15.1,15,15.1z"/>
	<path class="st1" d="M17,9h-2H6v10h9h2h5V9H17z M11,12c-1.1,0-2,0.9-2,2c0,1.1,0.9,2,2,2v1c-1.7,0-3-1.3-3-3s1.3-3,3-3V12z
		 M15,16.8c-0.3,0.1-0.6,0.2-1,0.2h-2v-1h2c0.5,0,0.9-0.2,1-0.6v-0.3c-0.3-1-2.8-0.5-3-2.1v0c-0.1-1.5,0.8-2,2-2h1v1h-1
		c-0.7,0-1.1,0.2-1,0.8c0,0.5,1.1,0.6,2,0.9c0.6,0.2,1,0.6,1,1.3C16,16.1,15.6,16.6,15,16.8z M20,16l-1,1h-1l-1-1v-5h1v5l0.5,0.5
		L19,16v-5h1V16z"/>
</g>
</svg>
