<?xml version="1.0" encoding="utf-8"?>
<!-- Generator: Adobe Illustrator 21.1.0, SVG Export Plug-In . SVG Version: 6.00 Build 0)  -->
<svg version="1.1" id="Layer_1" xmlns="http://www.w3.org/2000/svg" xmlns:xlink="http://www.w3.org/1999/xlink" x="0px" y="0px"
	 viewBox="0 0 24 24" enable-background="new 0 0 24 24" xml:space="preserve">
<g>
	<g>
		<g>
			<rect x="12" y="3" fill="#787878" width="3" height="7"/>
			<rect x="12" y="3" fill="#787878" width="3" height="7"/>
		</g>
	</g>
	<g>
		<g>
			<rect x="12" y="3" fill="#787878" width="3" height="7"/>
		</g>
	</g>
</g>
<rect x="8" y="7" fill="#787878" width="3" height="7"/>
<rect x="4" y="9" fill="#787878" width="3" height="5"/>
<rect x="12" y="15" fill="#F98506" width="11" height="3"/>
<rect x="12" y="19" fill="#F98506" width="11" height="3"/>
<rect x="12" y="11" fill="#F98506" width="11" height="3"/>
<path fill="#787878" d="M19,6V4l-3,3l3,3V8c1.1,0,2,0.9,2,2h2C23,7.8,21.2,6,19,6z"/>
<polygon fill="#787878" points="7,2 1,2 2,3 4,5 2,7 1,8 7,8 7,7 4,7 5,6 6,5 5,4 4,3 7,3 "/>
</svg>
