<?xml version="1.0" encoding="utf-8"?>
<!-- Generator: Adobe Illustrator 21.1.0, SVG Export Plug-In . SVG Version: 6.00 Build 0)  -->
<svg version="1.1" id="Layer_1" xmlns="http://www.w3.org/2000/svg" xmlns:xlink="http://www.w3.org/1999/xlink" x="0px" y="0px"
	 viewBox="0 0 24 24" enable-background="new 0 0 24 24" xml:space="preserve">
<g>
	<g>
		<g>
			<g>
				<path fill="#787878" d="M17,3v5H7V3H3v18h18V6l-3-3H17z M17,18H7v-5h10V18z"/>
			</g>
			<g>
				<path fill="#787878" d="M17,3v5H7V3H3v18h18V6l-3-3H17z M17,18H7v-5h10V18z"/>
			</g>
		</g>
		<g>
			<rect x="12" y="3" fill="#787878" width="4" height="4"/>
			<rect x="12" y="3" fill="#787878" width="4" height="4"/>
		</g>
		<g>
			<rect x="8" y="14" fill="#787878" width="8" height="1"/>
			<rect x="8" y="14" fill="#787878" width="8" height="1"/>
		</g>
		<g>
			<rect x="8" y="16" fill="#787878" width="8" height="1"/>
			<rect x="8" y="16" fill="#787878" width="8" height="1"/>
		</g>
	</g>
	<g>
		<g>
			<g>
				<path fill="#787878" d="M17,3v5H7V3H3v18h18V6l-3-3H17z M17,18H7v-5h10V18z"/>
			</g>
		</g>
		<g>
			<rect x="12" y="3" fill="#787878" width="4" height="4"/>
		</g>
		<g>
			<rect x="8" y="14" fill="#787878" width="8" height="1"/>
		</g>
		<g>
			<rect x="8" y="16" fill="#787878" width="8" height="1"/>
		</g>
	</g>
</g>
</svg>
