<?xml version="1.0" encoding="utf-8"?>
<!-- Generator: Adobe Illustrator 21.1.0, SVG Export Plug-In . SVG Version: 6.00 Build 0)  -->
<svg version="1.1" id="Layer_1" xmlns="http://www.w3.org/2000/svg" xmlns:xlink="http://www.w3.org/1999/xlink" x="0px" y="0px"
	 viewBox="0 0 16 16" enable-background="new 0 0 16 16" xml:space="preserve">
<path fill="#C6C6C6" d="M6.2,9H2V3h8v2.2C10.5,5.1,11,5,11.5,5c0.2,0,0.3,0,0.5,0V1H0v10h6c0-0.2,0-0.3,0-0.5C6,10,6.1,9.5,6.2,9z"
	/>
<path fill="#C6C6C6" d="M11.5,6C9,6,7,8,7,10.5S9,15,11.5,15s4.5-2,4.5-4.5S14,6,11.5,6z M14,11h-2v2h-1v-2H9v-1h2V8h1v2h2V11z"/>
</svg>
