<?xml version="1.0" encoding="utf-8"?>
<!-- Generator: Adobe Illustrator 19.1.1, SVG Export Plug-In . SVG Version: 6.00 Build 0)  -->
<svg version="1.1" id="Layer_1" xmlns="http://www.w3.org/2000/svg" xmlns:xlink="http://www.w3.org/1999/xlink" x="0px" y="0px"
	 viewBox="0 0 24 24" style="enable-background:new 0 0 24 24;" xml:space="preserve">
<style type="text/css">
	.dx_gray{fill:#C6C6C6;}
	.st0{fill:none;}
	.st1{fill:#C6C6C6;}
</style>
<g>
	<polygon class="st0" points="8,4 8,8 4,8 4,20 15,20 15,19 6,19 6,9 15,9 15,4 	"/>
	<path class="st1" d="M15,15.1v0.3c0,0,0-0.1,0-0.1C15,15.2,15,15.1,15,15.1z"/>
	<path class="dx_gray" d="M17,9V2H6L2,6v16h15v-3h5V9H17z M12,13L12,13c-0.1-1.5,0.8-2,2-2h1v1h-1c-0.7,0-1.1,0.2-1,0.8
		c0,0.5,1.1,0.6,2,0.9c0.6,0.2,1,0.6,1,1.3c0,1.1-0.4,1.6-1,1.8c-0.3,0.1-0.6,0.2-1,0.2h-2v-1h2c0.5,0,0.9-0.2,1-0.6v-0.3
		C14.8,14.1,12.2,14.6,12,13z M15,20H4L4,8h4V4h7v5H6v10h9V20z M11,16v1c-1.7,0-3-1.3-3-3s1.3-3,3-3v1c-1.1,0-2,0.9-2,2
		C9,15.1,9.9,16,11,16z M20,16l-1,1h-1l-1-1v-5h1v5l0.5,0.5L19,16l0-5h1V16z"/>
</g>
</svg>
