<?xml version="1.0" encoding="utf-8"?>
<!-- Generator: Adobe Illustrator 19.1.1, SVG Export Plug-In . SVG Version: 6.00 Build 0)  -->
<svg version="1.1" id="Layer_1" xmlns="http://www.w3.org/2000/svg" xmlns:xlink="http://www.w3.org/1999/xlink" x="0px" y="0px"
	 viewBox="0 0 24 24" style="enable-background:new 0 0 24 24;" xml:space="preserve">
<style type="text/css">
	.dx_darkgray{fill:#787878;}
	.st0{fill:none;}
	.st1{fill:#595A59;}
	.st2{fill:#FFFFFF;}
</style>
<g>
	<polygon class="st0" points="8,4 8,8 4,8 4,20 15,20 15,19 6,19 6,9 15,9 15,4 	"/>
	<polygon class="dx_darkgray" points="15,20 4,20 4,8 8,8 8,4 15,4 15,10 17,10 17,2 6,2 2,6 2,22 17,22 17,18 15,18 	"/>
	<path class="st1" d="M17,9h-2H6v10h9h2h5V9H17z M11,12h-1v5H9v-5H8v-1h1h1h1V12z M15,15l1,2h-1h0l-1-2l-1,2h-1l1.5-3L12,11h1l1,2
		l1-2h0h1l-1,2l-0.5,1L15,15z M20,12h-1v5h-1v-5h-1h0v-1h0h1h1h1V12z"/>
	<rect x="17" y="11" class="st2" width="0" height="1"/>
</g>
</svg>
