<?xml version="1.0" encoding="utf-8"?>
<!-- Generator: Adobe Illustrator 19.1.1, SVG Export Plug-In . SVG Version: 6.00 Build 0)  -->
<svg version="1.1" id="Layer_1" xmlns="http://www.w3.org/2000/svg" xmlns:xlink="http://www.w3.org/1999/xlink" x="0px" y="0px"
	 viewBox="0 0 24 24" style="enable-background:new 0 0 24 24;" xml:space="preserve">
<style type="text/css">
	.dx_gray{fill:#C6C6C6;}
	.st0{fill:#FFFFFF;}
</style>
<g>
	<g>
		<path class="dx_gray" d="M18,9V2H7L3,6v3h0H2v10h1v3h15v-3h4V9H18z M5,8h4V4h7v5H5L5,8z M12,13L12,13c-0.1-1.5,0.8-2,2-2h1v1h-1
			c-0.7,0-1.1,0.2-1,0.8c0.1,0.7,2.7,0.5,3,2c0,0.1,0,0.1,0,0.2c0,0.1,0,0.2,0,0.3c-0.1,1.3-1,1.7-2,1.7h-2v-1h2c0.6,0,1-0.2,1-0.7
			C15,14,12.2,14.7,12,13z M11,16v1h-1H9v-1v-5h1v5H11z M8,17H7l-1-2l-1,2l0,0H4l1-2l0.5-1L5,13l-1-2h1l0,0l1,2l1-2h1l-1.5,3L8,17z
			 M16,20H5l0-1h11V20z M20,17h-1l-1-2l-1,2h-1h0l0,0l1.5-3L16,11l0,0h0h1l1,2l1-2h1l-1.5,3L20,17z"/>
		<polygon class="dx_gray" points="16,11 16,11 16,11 		"/>
		<polygon class="dx_gray" points="16,17 16,17 16,17 		"/>
		<g>
			<path class="dx_gray" d="M16,14.8v0.5c0-0.1,0-0.2,0-0.3C16,14.9,16,14.9,16,14.8z"/>
			<path class="dx_gray" d="M16,14.8v0.5c0-0.1,0-0.2,0-0.3C16,14.9,16,14.9,16,14.8z"/>
		</g>
	</g>
	<g>
		<path class="dx_gray" d="M18,9V2H7L3,6v3h0H2v10h1v3h15v-3h4V9H18z M5,8h4V4h7v5H5L5,8z M12,13L12,13c-0.1-1.5,0.8-2,2-2h1v1h-1
			c-0.7,0-1.1,0.2-1,0.8c0.1,0.7,2.7,0.5,3,2c0,0.1,0,0.1,0,0.2c0,0.1,0,0.2,0,0.3c-0.1,1.3-1,1.7-2,1.7h-2v-1h2c0.6,0,1-0.2,1-0.7
			C15,14,12.2,14.7,12,13z M11,16v1h-1H9v-1v-5h1v5H11z M8,17H7l-1-2l-1,2l0,0H4l1-2l0.5-1L5,13l-1-2h1l0,0l1,2l1-2h1l-1.5,3L8,17z
			 M16,20H5l0-1h11V20z M20,17h-1l-1-2l-1,2h-1h0l0,0l1.5-3L16,11l0,0h0h1l1,2l1-2h1l-1.5,3L20,17z"/>
		<polygon class="st0" points="16,11 16,11 16,11 		"/>
		<polygon class="st0" points="16,17 16,17 16,17 		"/>
		<g>
			<path class="st0" d="M16,14.8v0.5c0-0.1,0-0.2,0-0.3C16,14.9,16,14.9,16,14.8z"/>
		</g>
	</g>
</g>
</svg>
