<?xml version="1.0" encoding="utf-8"?>
<!-- Generator: Adobe Illustrator 19.1.1, SVG Export Plug-In . SVG Version: 6.00 Build 0)  -->
<svg version="1.1" id="Layer_1" xmlns="http://www.w3.org/2000/svg" xmlns:xlink="http://www.w3.org/1999/xlink" x="0px" y="0px"
	 viewBox="0 0 24 24" style="enable-background:new 0 0 24 24;" xml:space="preserve">
<style type="text/css">
	.dx_darkgray{fill:#787878;}
</style>
<path class="dx_darkgray" d="M19.8,13.6l2.2-0.2l0-2.8l-2.2-0.2c-0.2-1-0.6-2-1.2-2.9L20,5.8L18.2,4l-1.7,1.4
	c-0.9-0.6-1.8-1-2.9-1.2L13.4,2l-2.8,0l-0.2,2.2c-1,0.2-2,0.6-2.9,1.2L5.8,4L4,5.8l1.4,1.7c-0.6,0.9-1,1.8-1.2,2.9L2,10.6l0,2.8
	l2.2,0.2c0.2,1,0.6,2,1.2,2.9L4,18.2L5.8,20l1.7-1.4c0.9,0.6,1.8,1,2.9,1.2l0.2,2.2l2.8,0l0.2-2.2c1-0.2,2-0.6,2.9-1.2l1.7,1.4
	l1.8-1.8l-1.4-1.7C19.2,15.6,19.6,14.6,19.8,13.6z M12,17c-2.8,0-5-2.2-5-5s2.2-5,5-5s5,2.2,5,5S14.8,17,12,17z"/>
</svg>
