<?xml version="1.0" encoding="utf-8"?>
<!-- Generator: Adobe Illustrator 21.1.0, SVG Export Plug-In . SVG Version: 6.00 Build 0)  -->
<svg version="1.1" id="Layer_1" xmlns="http://www.w3.org/2000/svg" xmlns:xlink="http://www.w3.org/1999/xlink" x="0px" y="0px"
	 viewBox="0 0 24 24" enable-background="new 0 0 24 24" xml:space="preserve">
<path fill="#C6C6C6" d="M14.5,2C10.4,2,7,5.4,7,9.5c0,1.6,0.5,3,1.3,4.2L2,20l2,2l6.3-6.3c1.2,0.8,2.6,1.3,4.2,1.3
	c4.1,0,7.5-3.4,7.5-7.5S18.6,2,14.5,2z M14.5,15c-1,0-1.9-0.3-2.8-0.7c-0.8-0.5-1.5-1.2-2-2C9.3,11.4,9,10.5,9,9.5
	c0-3,2.5-5.5,5.5-5.5S20,6.5,20,9.5C20,12.5,17.5,15,14.5,15z"/>
</svg>
