<?xml version="1.0" encoding="utf-8"?>
<!-- Generator: Adobe Illustrator 21.1.0, SVG Export Plug-In . SVG Version: 6.00 Build 0)  -->
<svg version="1.1" id="Layer_1" xmlns="http://www.w3.org/2000/svg" xmlns:xlink="http://www.w3.org/1999/xlink" x="0px" y="0px"
	 viewBox="0 0 16 16" enable-background="new 0 0 16 16" xml:space="preserve">
<g>
	<g>
		<path fill="#787878" d="M7,5.5L7,5.5c0-0.9,0.4-1.7,1-2.4C7.8,1.9,6.7,1,5.5,1C4.1,1,3,2.1,3,3.5C3,3.6,3,3.9,3,4
			c0,2.2,1.1,4,2.5,4c0.6,0,1.2-0.4,1.6-1C7.1,6.5,7,6,7,5.5C7,5.5,7,5.5,7,5.5z"/>
		<path fill="#787878" d="M8,10h0.5C8.2,9.7,8,9.4,7.8,9H7H4H3c-1.7,0-3,1.3-3,3c0,0.6,0.4,1,1,1h3.1C4.6,11.3,6.1,10,8,10z"/>
	</g>
	<g>
		<path fill="#787878" d="M7,5.5L7,5.5c0-0.9,0.4-1.7,1-2.4C7.8,1.9,6.7,1,5.5,1C4.1,1,3,2.1,3,3.5C3,3.6,3,3.9,3,4
			c0,2.2,1.1,4,2.5,4c0.6,0,1.2-0.4,1.6-1C7.1,6.5,7,6,7,5.5C7,5.5,7,5.5,7,5.5z"/>
		<path fill="#787878" d="M8,10h0.5C8.2,9.7,8,9.4,7.8,9H7H4H3c-1.7,0-3,1.3-3,3c0,0.6,0.4,1,1,1h3.1C4.6,11.3,6.1,10,8,10z"/>
	</g>
</g>
<path fill="#787878" d="M13,5.5C13,4.1,11.9,3,10.5,3S8,4.1,8,5.5C8,5.6,8,5.9,8,6c0,2.2,1.1,4,2.5,4S13,8.2,13,6
	C13,5.9,13,5.6,13,5.5z"/>
<path fill="#787878" d="M15,15H6c-0.6,0-1-0.4-1-1v0c0-1.7,1.3-3,3-3h5c1.7,0,3,1.3,3,3v0C16,14.6,15.6,15,15,15z"/>
</svg>
