<?xml version="1.0" encoding="utf-8"?>
<!-- Generator: Adobe Illustrator 19.1.1, SVG Export Plug-In . SVG Version: 6.00 Build 0)  -->
<svg version="1.1" id="Layer_1" xmlns="http://www.w3.org/2000/svg" xmlns:xlink="http://www.w3.org/1999/xlink" x="0px" y="0px"
	 viewBox="0 0 16 16" style="enable-background:new 0 0 16 16;" xml:space="preserve">
<style type="text/css">
	.dx_white{fill:#FFFFFF;}
</style>
<path class="dx_white" d="M10,3c0-1.7-1.3-3-3-3S4,1.3,4,3c0,2.9,1.6,5,3,5S10,5.9,10,3z"/>
<path class="dx_white" d="M6,11.5c0-0.3,0-0.5,0.1-0.7L5,9H4c-2.2,0-4,1.8-4,4c0,0.5,0.5,1,1,1h5.6C6.2,13.2,6,12.4,6,11.5z"/>
<path class="dx_white" d="M11.5,7C9,7,7,9,7,11.5S9,16,11.5,16s4.5-2,4.5-4.5S14,7,11.5,7z M11.5,8C11.8,8,12,8.2,12,8.5
	C12,8.8,11.8,9,11.5,9S11,8.8,11,8.5C11,8.2,11.2,8,11.5,8z M13,14h-3v-0.3c0,0,1,0.1,1-0.7v-2c0-0.6-1-0.7-1-0.7V10h2v3
	c0,0.8,1,0.7,1,0.7V14z"/>
</svg>
