<?xml version="1.0" encoding="utf-8"?>
<!-- Generator: Adobe Illustrator 21.1.0, SVG Export Plug-In . SVG Version: 6.00 Build 0)  -->
<svg version="1.1" id="Layer_1" xmlns="http://www.w3.org/2000/svg" xmlns:xlink="http://www.w3.org/1999/xlink" x="0px" y="0px"
	 viewBox="0 0 16 16" enable-background="new 0 0 16 16" xml:space="preserve">
<path fill="#C6C6C6" d="M14.8,12.4l-2.3-2.3c-0.3-0.3-0.8-0.3-1.2,0L11,10.4c-0.5,0.5-1.2,0.5-1.7,0L5.7,6.8c-0.5-0.5-0.5-1.2,0-1.7
	L6,4.8c0.3-0.3,0.3-0.8,0-1.2L3.6,1.2C3.3,1,2.8,1,2.4,1.2C1.8,2,1.3,2.7,1.1,3.7C0.7,5.2,1.2,7,2.5,8.3l5.2,5.2
	c1.2,1.2,3,1.7,4.6,1.4c0.9-0.2,1.8-0.7,2.4-1.4C15,13.3,15,12.7,14.8,12.4z"/>
</svg>
