<?xml version="1.0" encoding="utf-8"?>
<!-- Generator: Adobe Illustrator 21.1.0, SVG Export Plug-In . SVG Version: 6.00 Build 0)  -->
<svg version="1.1" id="Layer_1" xmlns="http://www.w3.org/2000/svg" xmlns:xlink="http://www.w3.org/1999/xlink" x="0px" y="0px"
	 viewBox="0 0 16 16" enable-background="new 0 0 16 16" xml:space="preserve">
<g>
	<g>
		<g>
			<path fill="#787878" d="M11,10h-1l-2,2l-2-2H5c-2.2,0-4,1.8-4,4c0,0.5,0.5,1,1,1h12c0.5,0,1-0.5,1-1C15,11.8,13.2,10,11,10z"/>
			<path fill="#787878" d="M11,10h-1l-2,2l-2-2H5c-2.2,0-4,1.8-4,4c0,0.5,0.5,1,1,1h12c0.5,0,1-0.5,1-1C15,11.8,13.2,10,11,10z"/>
		</g>
		<g>
			<path fill="#787878" d="M8,9c1.4,0,3-2.1,3-5c0-1.7-1.3-3-3-3S5,2.3,5,4C5,6.9,6.6,9,8,9z"/>
			<path fill="#787878" d="M8,9c1.4,0,3-2.1,3-5c0-1.7-1.3-3-3-3S5,2.3,5,4C5,6.9,6.6,9,8,9z"/>
		</g>
	</g>
	<g>
		<g>
			<path fill="#787878" d="M11,10h-1l-2,2l-2-2H5c-2.2,0-4,1.8-4,4c0,0.5,0.5,1,1,1h12c0.5,0,1-0.5,1-1C15,11.8,13.2,10,11,10z"/>
		</g>
		<g>
			<path fill="#787878" d="M8,9c1.4,0,3-2.1,3-5c0-1.7-1.3-3-3-3S5,2.3,5,4C5,6.9,6.6,9,8,9z"/>
		</g>
	</g>
</g>
</svg>
