<?xml version="1.0" encoding="utf-8"?>
<!-- Generator: Adobe Illustrator 19.1.1, SVG Export Plug-In . SVG Version: 6.00 Build 0)  -->
<svg version="1.1" id="Layer_1" xmlns="http://www.w3.org/2000/svg" xmlns:xlink="http://www.w3.org/1999/xlink" x="0px" y="0px"
	 viewBox="0 0 16 16" style="enable-background:new 0 0 16 16;" xml:space="preserve">
<style type="text/css">
	.dx_darkgray{fill:#787878;}
</style>
<g>
	<g>
		<path class="dx_darkgray" d="M0,1c0,6.1,3.6,14,8,14s8-7.9,8-14H0z M3,5c0.4,0.4,1.4,0.7,2,0.7S6.6,5.4,7,5c0,1.1-0.9,2-2,2
			S3,6.1,3,5z M8,12c-1.1,0-2-0.9-2-2h4C10,11.1,9.1,12,8,12z M11,7C9.9,7,9,6.1,9,5c0.4,0.4,1.4,0.7,2,0.7s1.6-0.3,2-0.7
			C13,6.1,12.1,7,11,7z"/>
	</g>
	<g>
		<path class="dx_darkgray" d="M0,1c0,6.1,3.6,14,8,14s8-7.9,8-14H0z M3,5c0.4,0.4,1.4,0.7,2,0.7S6.6,5.4,7,5c0,1.1-0.9,2-2,2
			S3,6.1,3,5z M8,12c-1.1,0-2-0.9-2-2h4C10,11.1,9.1,12,8,12z M11,7C9.9,7,9,6.1,9,5c0.4,0.4,1.4,0.7,2,0.7s1.6-0.3,2-0.7
			C13,6.1,12.1,7,11,7z"/>
	</g>
</g>
</svg>
