<?xml version="1.0" encoding="utf-8"?>
<!-- Generator: Adobe Illustrator 19.1.1, SVG Export Plug-In . SVG Version: 6.00 Build 0)  -->
<svg version="1.1" id="Layer_1" xmlns="http://www.w3.org/2000/svg" xmlns:xlink="http://www.w3.org/1999/xlink" x="0px" y="0px"
	 viewBox="0 0 16 16" style="enable-background:new 0 0 16 16;" xml:space="preserve">
<style type="text/css">
	.dx_darkgray{fill:#787878;}
	.dx_green{fill:#2D9D54;}
</style>
<g>
	<g>
		<path class="dx_green" d="M11.5,6C9,6,7,8,7,10.5S9,15,11.5,15s4.5-2,4.5-4.5S14,6,11.5,6z M13.1,12.5c-0.2,0.3-0.6,0.4-1.1,0.5v1
			h-1v-1c-0.8-0.1-1.4-0.6-1.5-1.3l1.1-0.2c0.1,0.5,0.5,0.7,1,0.7c0.3,0,0.5-0.1,0.6-0.2s0.2-0.2,0.2-0.4c0-0.1-0.1-0.3-0.2-0.3
			s-0.3-0.2-0.7-0.2c-0.7-0.2-1.2-0.4-1.4-0.6c-0.2-0.3-0.3-0.6-0.3-0.9c0-0.4,0.2-0.7,0.4-1C10.4,8.2,10.7,8.1,11,8V7h1v1
			c0.7,0.1,1.2,0.5,1.4,1.1l-1,0.3c-0.1-0.4-0.4-0.6-0.8-0.6c-0.5,0-0.7,0.1-0.7,0.4c0,0.1,0,0.2,0.1,0.3s0.3,0.2,0.6,0.2
			c0.5,0.1,0.9,0.2,1.1,0.3c0.2,0.1,0.4,0.3,0.6,0.5s0.2,0.5,0.2,0.8C13.5,11.8,13.4,12.2,13.1,12.5z"/>
	</g>
	<g>
		<path class="dx_green" d="M11.5,6C9,6,7,8,7,10.5S9,15,11.5,15s4.5-2,4.5-4.5S14,6,11.5,6z M13.1,12.5c-0.2,0.3-0.6,0.4-1.1,0.5v1
			h-1v-1c-0.8-0.1-1.4-0.6-1.5-1.3l1.1-0.2c0.1,0.5,0.5,0.7,1,0.7c0.3,0,0.5-0.1,0.6-0.2s0.2-0.2,0.2-0.4c0-0.1-0.1-0.3-0.2-0.3
			s-0.3-0.2-0.7-0.2c-0.7-0.2-1.2-0.4-1.4-0.6c-0.2-0.3-0.3-0.6-0.3-0.9c0-0.4,0.2-0.7,0.4-1C10.4,8.2,10.7,8.1,11,8V7h1v1
			c0.7,0.1,1.2,0.5,1.4,1.1l-1,0.3c-0.1-0.4-0.4-0.6-0.8-0.6c-0.5,0-0.7,0.1-0.7,0.4c0,0.1,0,0.2,0.1,0.3s0.3,0.2,0.6,0.2
			c0.5,0.1,0.9,0.2,1.1,0.3c0.2,0.1,0.4,0.3,0.6,0.5s0.2,0.5,0.2,0.8C13.5,11.8,13.4,12.2,13.1,12.5z"/>
	</g>
</g>
<g>
	<g>
		<rect y="1" class="dx_darkgray" width="13" height="2"/>
		<g>
			<path class="dx_darkgray" d="M2,13L2,13l4.6,0C6.2,12.3,6,11.4,6,10.5C6,7.6,8.2,5.3,11,5V4H2V13z"/>
			<path class="dx_darkgray" d="M2,13L2,13l4.6,0C6.2,12.3,6,11.4,6,10.5C6,7.6,8.2,5.3,11,5V4H2V13z"/>
		</g>
	</g>
	<g>
		<rect y="1" class="dx_darkgray" width="13" height="2"/>
		<g>
			<path class="dx_darkgray" d="M2,13L2,13l4.6,0C6.2,12.3,6,11.4,6,10.5C6,7.6,8.2,5.3,11,5V4H2V13z"/>
		</g>
	</g>
</g>
</svg>
