<?xml version="1.0" encoding="utf-8"?>
<!-- Generator: Adobe Illustrator 21.1.0, SVG Export Plug-In . SVG Version: 6.00 Build 0)  -->
<svg version="1.1" id="Layer_1" xmlns="http://www.w3.org/2000/svg" xmlns:xlink="http://www.w3.org/1999/xlink" x="0px" y="0px"
	 viewBox="0 0 16 16" enable-background="new 0 0 16 16" xml:space="preserve">
<path fill="#C6C6C6" d="M2,9V7h6.3c0.9-0.6,2-1,3.2-1c0.5,0,1,0.1,1.5,0.2V0H0v11h6c0.1-0.7,0.3-1.4,0.6-2H2z M11,1L9,3L7,1H11z
	 M2,4h9v2H2V4z"/>
<path fill="#C6C6C6" d="M11.5,7C9,7,7,9,7,11.5S9,16,11.5,16s4.5-2,4.5-4.5S14,7,11.5,7z M12,13l-1,1l-2.5-2.5l1-1L11,12l2.5-2.5
	l1,1L12,13z"/>
</svg>
