<?xml version="1.0" encoding="utf-8"?>
<!-- Generator: Adobe Illustrator 21.1.0, SVG Export Plug-In . SVG Version: 6.00 Build 0)  -->
<svg version="1.1" id="Layer_1" xmlns="http://www.w3.org/2000/svg" xmlns:xlink="http://www.w3.org/1999/xlink" x="0px" y="0px"
	 viewBox="0 0 16 16" enable-background="new 0 0 16 16" xml:space="preserve">
<polygon fill="#787878" points="5,4 5,3 4,3 3,3 3,4 3,6 3,7 5,7 5,6 4,6 4,4 "/>
<g>
	<path fill="#787878" d="M2,8V2h10v4c0.7,0.1,1.4,0.3,2,0.6V0H0v10h6.2c0.2-0.7,0.6-1.4,1-2H2z"/>
	<path fill="#787878" d="M11,6V4V3H9v1h1v2H9v0.6C9.6,6.3,10.3,6.1,11,6L11,6z"/>
</g>
<g>
	<g>
		<path fill="#2D9D54" d="M11.5,7C9,7,7,9,7,11.5S9,16,11.5,16s4.5-2,4.5-4.5S14,7,11.5,7z M12,13l-1,1l-2.5-2.5l1-1L11,12l2.5-2.5
			l1,1L12,13z"/>
	</g>
	<g>
		<path fill="#2D9D54" d="M11.5,7C9,7,7,9,7,11.5S9,16,11.5,16s4.5-2,4.5-4.5S14,7,11.5,7z M12,13l-1,1l-2.5-2.5l1-1L11,12l2.5-2.5
			l1,1L12,13z"/>
	</g>
</g>
</svg>
