<?xml version="1.0" encoding="utf-8"?>
<!-- Generator: Adobe Illustrator 21.1.0, SVG Export Plug-In . SVG Version: 6.00 Build 0)  -->
<svg version="1.1" id="Layer_1" xmlns="http://www.w3.org/2000/svg" xmlns:xlink="http://www.w3.org/1999/xlink" x="0px" y="0px"
	 viewBox="0 0 16 16" enable-background="new 0 0 16 16" xml:space="preserve">
<polygon fill="#2D9D54" points="13,4 8,9 6,7 4,9 8,13 15,6 "/>
<g>
	<g>
		<polygon fill="#787878" points="11,11 11,14 8,14 3,14 3,9 3,4 11,4 11,5 13,3 13,2 10,2 10,0 4,0 4,2 1,2 1,16 13,16 13,9 		"/>
	</g>
	<g>
		<polygon fill="#787878" points="11,11 11,14 8,14 3,14 3,9 3,4 11,4 11,5 13,3 13,2 10,2 10,0 4,0 4,2 1,2 1,16 13,16 13,9 		"/>
	</g>
</g>
</svg>
