<?xml version="1.0" encoding="utf-8"?>
<!-- Generator: Adobe Illustrator 21.1.0, SVG Export Plug-In . SVG Version: 6.00 Build 0)  -->
<svg version="1.1" id="Layer_1" xmlns="http://www.w3.org/2000/svg" xmlns:xlink="http://www.w3.org/1999/xlink" x="0px" y="0px"
	 viewBox="0 0 16 16" enable-background="new 0 0 16 16" xml:space="preserve">
<path fill="#C6C6C6" d="M8,0C3.6,0,0,3.6,0,8s3.6,8,8,8s8-3.6,8-8S12.4,0,8,0z M8.7,13H7.2v-1.5h1.5V13z M10.7,6.1
	c-0.2,0.3-0.6,0.8-1.3,1.3C9,7.6,8.7,8.1,8.7,8.5c0,0.3,0,1.5,0,1.5H7.2c0-0.2,0-1.4,0-1.5c0-0.5,0.1-0.8,0.2-1.1
	c0.2-0.3,0.5-0.7,1-1s0.8-0.6,0.9-0.8C9.3,5.4,9.4,5.2,9.4,5c0-0.3-0.1-0.6-0.4-0.8C8.8,3.9,8.4,3.8,8,3.8c-0.4,0-0.8,0.1-1.1,0.3
	S6.3,4.9,6.3,5.6l-1.4,0c0-1,0.3-1.8,0.9-2.2C6.3,2.8,7,2.6,7.9,2.6c0.9,0,1.7,0.2,2.2,0.7C10.7,3.8,11,4.4,11,5
	C11,5.4,10.9,5.7,10.7,6.1z"/>
</svg>
