<?xml version="1.0" encoding="utf-8"?>
<!-- Generator: Adobe Illustrator 19.1.1, SVG Export Plug-In . SVG Version: 6.00 Build 0)  -->
<svg version="1.1" id="Layer_1" xmlns="http://www.w3.org/2000/svg" xmlns:xlink="http://www.w3.org/1999/xlink" x="0px" y="0px"
	 viewBox="0 0 16 16" style="enable-background:new 0 0 16 16;" xml:space="preserve">
<style type="text/css">
	.dx_darkgray{fill:#787878;}
</style>
<g>
	<g>
		<g>
			<g>
				<path class="dx_darkgray" d="M8,2C3.6,2,0,6.1,0,8c0,2,3.6,6,8,6s8-4,8-6C16,6.1,12.4,2,8,2z M8,12c-2.2,0-4-1.8-4-4
					c0-2.2,1.8-4,4-4s4,1.8,4,4C12,10.2,10.2,12,8,12z"/>
			</g>
			<g>
				<path class="dx_darkgray" d="M8,2C3.6,2,0,6.1,0,8c0,2,3.6,6,8,6s8-4,8-6C16,6.1,12.4,2,8,2z M8,12c-2.2,0-4-1.8-4-4
					c0-2.2,1.8-4,4-4s4,1.8,4,4C12,10.2,10.2,12,8,12z"/>
			</g>
		</g>
		<g>
			<g>
				<path class="dx_darkgray" d="M8,5C6.3,5,5,6.3,5,8s1.3,3,3,3s3-1.3,3-3S9.7,5,8,5z M9,8C8.4,8,8,7.6,8,7c0-0.6,0.4-1,1-1
					s1,0.4,1,1C10,7.6,9.6,8,9,8z"/>
			</g>
			<g>
				<path class="dx_darkgray" d="M8,5C6.3,5,5,6.3,5,8s1.3,3,3,3s3-1.3,3-3S9.7,5,8,5z M9,8C8.4,8,8,7.6,8,7c0-0.6,0.4-1,1-1
					s1,0.4,1,1C10,7.6,9.6,8,9,8z"/>
			</g>
		</g>
	</g>
	<g>
		<g>
			<g>
				<path class="dx_darkgray" d="M8,2C3.6,2,0,6.1,0,8c0,2,3.6,6,8,6s8-4,8-6C16,6.1,12.4,2,8,2z M8,12c-2.2,0-4-1.8-4-4
					c0-2.2,1.8-4,4-4s4,1.8,4,4C12,10.2,10.2,12,8,12z"/>
			</g>
		</g>
		<g>
			<g>
				<path class="dx_darkgray" d="M8,5C6.3,5,5,6.3,5,8s1.3,3,3,3s3-1.3,3-3S9.7,5,8,5z M9,8C8.4,8,8,7.6,8,7c0-0.6,0.4-1,1-1
					s1,0.4,1,1C10,7.6,9.6,8,9,8z"/>
			</g>
		</g>
	</g>
</g>
</svg>
