<?xml version="1.0" encoding="utf-8"?>
<!-- Generator: Adobe Illustrator 21.1.0, SVG Export Plug-In . SVG Version: 6.00 Build 0)  -->
<svg version="1.1" id="Layer_1" xmlns="http://www.w3.org/2000/svg" xmlns:xlink="http://www.w3.org/1999/xlink" x="0px" y="0px"
	 viewBox="0 0 16 16" enable-background="new 0 0 16 16" xml:space="preserve">
<g>
	<path fill="none" d="M8,7c2.2,0,3-1.8,3-4H5C5,5.2,5.8,7,8,7z"/>
</g>
<path fill="#C6C6C6" d="M13,3h1V1H2v2h1c0,2.1,0.9,3.9,2.2,5C3.9,9.1,3,10.9,3,13H2v2h12v-2h-1c0-2.1-0.9-3.9-2.2-5
	C12.1,6.9,13,5.1,13,3z M11,13H5c0-2.2,1.3-4,3-4S11,10.8,11,13z M8,7C6.3,7,5,5.2,5,3h6C11,5.2,9.7,7,8,7z"/>
</svg>
