<?xml version="1.0" encoding="utf-8"?>
<!-- Generator: Adobe Illustrator 21.1.0, SVG Export Plug-In . SVG Version: 6.00 Build 0)  -->
<svg version="1.1" id="Layer_1" xmlns="http://www.w3.org/2000/svg" xmlns:xlink="http://www.w3.org/1999/xlink" x="0px" y="0px"
	 viewBox="0 0 24 24" enable-background="new 0 0 24 24" xml:space="preserve">
<path fill="#787878" d="M19,5h2V3H3v2h2c0,3,1.5,5.6,3.6,7C6.5,13.4,5,16,5,19H3v2h18v-2h-2c0-3-1.5-5.6-3.6-7C17.5,10.6,19,8,19,5z
	 M17,19H7c0-3.3,2.2-6,5-6S17,15.7,17,19z M7,5h10c0,3.3-2.2,6-5,6S7,8.3,7,5z"/>
</svg>
