<?xml version="1.0" encoding="utf-8"?>
<!-- Generator: Adobe Illustrator 19.1.1, SVG Export Plug-In . SVG Version: 6.00 Build 0)  -->
<svg version="1.1" id="Layer_1" xmlns="http://www.w3.org/2000/svg" xmlns:xlink="http://www.w3.org/1999/xlink" x="0px" y="0px"
	 viewBox="0 0 24 24" style="enable-background:new 0 0 24 24;" xml:space="preserve">
<style type="text/css">
	.dx_darkgray{fill:#787878;}
	.st0{fill:none;}
	.st1{fill:#B77307;}
</style>
<g>
	<polygon class="st0" points="8,4 8,8 4,8 4,20 15,20 15,19 6,19 6,9 15,9 15,4 	"/>
	<polygon class="st0" points="9,13 10,15 11,13 11,17 12,17 12,11 11,11 10,13 9,11 8,11 8,17 9,17 	"/>
	<polygon class="st0" points="18,12 18,17 19,17 19,12 20,12 20,11 19,11 18,11 17,11 17,12 	"/>
	<polygon class="dx_darkgray" points="15,20 4,20 4,8 8,8 8,4 15,4 15,10 17,10 17,2 6,2 2,6 2,22 17,22 17,18 15,18 	"/>
	<path class="st1" d="M17,9h-2H6v10h9h2h5V9H17z M12,17h-1v-4l-1,2l-1-2v4H8v-6h1l1,2l1-2h1V17z M16,17h-1h0v-3h-1v3h-1v-6h1v2h1v-2
		h0h1V17z M20,12h-1v5h-1v-5h-1v-1h3V12z"/>
</g>
</svg>
