<?xml version="1.0" encoding="utf-8"?>
<!-- Generator: Adobe Illustrator 19.1.1, SVG Export Plug-In . SVG Version: 6.00 Build 0)  -->
<svg version="1.1" id="Layer_1" xmlns="http://www.w3.org/2000/svg" xmlns:xlink="http://www.w3.org/1999/xlink" x="0px" y="0px"
	 viewBox="0 0 24 24" style="enable-background:new 0 0 24 24;" xml:space="preserve">
<style type="text/css">
	.dx_darkgray{fill:#787878;}
</style>
<path class="dx_darkgray" d="M19.6,5.4C17.7,3.3,15,2,12,2C6.5,2,2,6.5,2,12h2c0-4.4,3.6-8,8-8c2.5,0,4.7,1.1,6.1,2.9L15,10h7V3
	L19.6,5.4z"/>
<path class="dx_darkgray" d="M12,20c-2.5,0-4.7-1.1-6.1-2.9L9,14H2v7l2.4-2.4C6.3,20.7,9,22,12,22c5.5,0,10-4.5,10-10h-2
	C20,16.4,16.4,20,12,20z"/>
</svg>
