<?xml version="1.0" encoding="utf-8"?>
<!-- Generator: Adobe Illustrator 19.1.1, SVG Export Plug-In . SVG Version: 6.00 Build 0)  -->
<svg version="1.1" id="Layer_1" xmlns="http://www.w3.org/2000/svg" xmlns:xlink="http://www.w3.org/1999/xlink" x="0px" y="0px"
	 viewBox="0 0 24 24" style="enable-background:new 0 0 24 24;" xml:space="preserve">
<style type="text/css">
	.dx_gray{fill:#C6C6C6;}
</style>
<path class="dx_gray" d="M17,9V2H6L2,6v16h15v-3h5V9H17z M15,20H4L4,8h4V4h7v5H6v10h9V20z M12,17h-1l-1-2l-1,2H8l1.5-3L8,11h1l1,2
	l1-2h1l-1.5,3L12,17z M17,17h-1v-4l-1,2l-1-2v4h-1v-6h1l1,2l1-2h1V17z M20,17h-2v-6h1v5h1V17z"/>
</svg>
