<?xml version="1.0" encoding="utf-8"?>
<!-- Generator: Adobe Illustrator 21.1.0, SVG Export Plug-In . SVG Version: 6.00 Build 0)  -->
<svg version="1.1" id="Layer_1" xmlns="http://www.w3.org/2000/svg" xmlns:xlink="http://www.w3.org/1999/xlink" x="0px" y="0px"
	 viewBox="0 0 24 24" enable-background="new 0 0 24 24" xml:space="preserve">
<rect x="11" y="2" fill="#787878" width="4" height="4"/>
<g>
	<path fill="#787878" d="M10,16H6v-5h7c1-0.6,2.2-1,3.5-1c1.3,0,2.5,0.4,3.5,1V5l-3-3h-1v5H6V2H2v18h9c-0.6-1-1-2.2-1-3.5
		C10,16.3,10,16.2,10,16z"/>
	<path fill="#787878" d="M7,12v1h4c0.2-0.4,0.5-0.7,0.8-1H7z"/>
	<path fill="#787878" d="M7,14v1h3.2c0.1-0.3,0.2-0.7,0.3-1H7z"/>
</g>
<path fill="#BF0707" d="M16.5,11c-3,0-5.5,2.5-5.5,5.5c0,3,2.5,5.5,5.5,5.5s5.5-2.5,5.5-5.5C22,13.5,19.5,11,16.5,11z M20,19l-1,1
	l-2.5-2.5L14,20l-1-1l2.5-2.5L13,14l1-1l2.5,2.5L19,13l1,1l-2.5,2.5L20,19z"/>
</svg>
