<?xml version="1.0" encoding="utf-8"?>
<!-- Generator: Adobe Illustrator 21.0.0, SVG Export Plug-In . SVG Version: 6.00 Build 0)  -->
<svg version="1.1" id="Layer_1" xmlns="http://www.w3.org/2000/svg" xmlns:xlink="http://www.w3.org/1999/xlink" x="0px" y="0px"
	 viewBox="0 0 24 24" style="enable-background:new 0 0 24 24;" xml:space="preserve">
<style type="text/css">
	.dx_darkgray{fill:#787878;}
</style>
<g>
	<path class="dx_darkgray" d="M16,0v7h7C23,3.1,19.9,0,16,0z"/>
	<path class="dx_darkgray" d="M12,24h12V12L12,24z M22,22h-5l5-5V22z"/>
	<path class="dx_darkgray" d="M6,10c-3.3,0-6,2.7-6,6s2.7,6,6,6s6-2.7,6-6S9.3,10,6,10z M6,16l-2-2l1,2H2c0-2.2,1.8-4,4-4s4,1.8,4,4H6z"/>
	<path class="dx_darkgray" d="M14,16L14,16L14,16c3.9,0,7-3.1,7-7h-7V2c-3.6,0-6.5,2.6-6.9,6.1C11,8.6,14,11.9,14,16z"/>
</g>
</svg>
