<?xml version="1.0" encoding="utf-8"?>
<!-- Generator: Adobe Illustrator 19.1.1, SVG Export Plug-In . SVG Version: 6.00 Build 0)  -->
<svg version="1.1" id="Layer_1" xmlns="http://www.w3.org/2000/svg" xmlns:xlink="http://www.w3.org/1999/xlink" x="0px" y="0px"
	 viewBox="0 0 24 24" style="enable-background:new 0 0 24 24;" xml:space="preserve">
<style type="text/css">
	.dx_gray{fill:#C6C6C6;}
	.st0{fill:none;}
	.st1{fill:#FFFFFF;}
</style>
<g>
	<polygon class="st0" points="6,9 15,9 15,4 8,4 8,8 4,8 4,20 15,20 15,19 6,19 	"/>
	<path class="dx_gray" d="M17,9V2H6L2,6v16h15v-3h5V9H17z M15,20H4L4,8h4V4h7v5H6v10h9V20z M12,15l-1-2v4h-1v-6h1l1,2l1-2h1v6h-1v-4
		L12,15z M9,11v6H8v-6H9z M20,12h-2c-0.4,0-0.7,0.1-1,0.3c-0.6,0.3-1,1-1,1.7s0.4,1.4,1,1.7c0.3,0.2,0.6,0.3,1,0.3h1v-1h-2h0v-1h0h2
		h1v2v1h-1h-1c-0.4,0-0.7-0.1-1-0.2c-1.1-0.4-2-1.5-2-2.7c0,0,0-0.1,0-0.1s0-0.1,0-0.1c0-1.3,0.9-2.3,2-2.7c0.3-0.1,0.6-0.2,1-0.2h2
		V12z"/>
	<path class="st1" d="M15,14C15,14,15,14.1,15,14L15,14C15,13.9,15,14,15,14z"/>
	<rect x="17" y="14" class="st1" width="0" height="1"/>
</g>
</svg>
