<?xml version="1.0" encoding="utf-8"?>
<!-- Generator: Adobe Illustrator 21.1.0, SVG Export Plug-In . SVG Version: 6.00 Build 0)  -->
<svg version="1.1" id="Layer_1" xmlns="http://www.w3.org/2000/svg" xmlns:xlink="http://www.w3.org/1999/xlink" x="0px" y="0px"
	 viewBox="0 0 24 24" enable-background="new 0 0 24 24" xml:space="preserve">
<rect x="11" y="2" fill="#C6C6C6" width="4" height="4"/>
<g>
	<g>
		<polygon fill="#C6C6C6" points="6,16 6,11 13,11 14,10 20,10 20,5 17,2 16,2 16,7 6,7 6,2 2,2 2,20 11,20 11,16 		"/>
		<polygon fill="#C6C6C6" points="12,12 7,12 7,13 11,13 11,13 		"/>
		<rect x="7" y="14" fill="#C6C6C6" width="4" height="1"/>
	</g>
	<g>
		<polygon fill="#C6C6C6" points="6,16 6,11 13,11 14,10 20,10 20,5 17,2 16,2 16,7 6,7 6,2 2,2 2,20 11,20 11,16 		"/>
		<polygon fill="#C6C6C6" points="12,12 7,12 7,13 11,13 11,13 		"/>
		<rect x="7" y="14" fill="#C6C6C6" width="4" height="1"/>
	</g>
</g>
<path fill="#C6C6C6" d="M15,11l-3,3v8h10V11H15z M20,20h-6v-5h2v-2h4V20z"/>
</svg>
