<?xml version="1.0" encoding="utf-8"?>
<!-- Generator: Adobe Illustrator 19.1.1, SVG Export Plug-In . SVG Version: 6.00 Build 0)  -->
<svg version="1.1" id="Layer_1" xmlns="http://www.w3.org/2000/svg" xmlns:xlink="http://www.w3.org/1999/xlink" x="0px" y="0px"
	 viewBox="0 0 24 24" style="enable-background:new 0 0 24 24;" xml:space="preserve">
<style type="text/css">
	.dx_white{fill:#FFFFFF;}
</style>
<path class="dx_white" d="M12,21c1.1,0,2-0.9,2-2h-4C10,20.1,10.9,21,12,21z"/>
<path class="dx_white" d="M17,10c0-1.3-0.5-3.8-3-4.7c0-0.1,0-0.2,0-0.3c0-1.1-0.9-2-2-2s-2,0.9-2,2c0,0.1,0,0.2,0,0.3
	C7.2,6.2,7,9,7,10c0,4.8-1.6,5.5-3,6v2h16v-2C18.3,15.3,17,14.8,17,10z M11,5c0-0.6,0.4-1,1-1s1,0.4,1,1c0,0,0,0,0,0.1
	C12.7,5,12.4,5,12,5C11.6,5,11.3,5,11,5C11,5,11,5,11,5z"/>
</svg>
