<?xml version="1.0" encoding="utf-8"?>
<!-- Generator: Adobe Illustrator 21.1.0, SVG Export Plug-In . SVG Version: 6.00 Build 0)  -->
<svg version="1.1" id="Layer_1" xmlns="http://www.w3.org/2000/svg" xmlns:xlink="http://www.w3.org/1999/xlink" x="0px" y="0px"
	 viewBox="0 0 24 24" style="enable-background:new 0 0 24 24;" xml:space="preserve">
<style type="text/css">
	.dx_darkgray{fill:#787878;}
	.st0{fill:none;}
	.st1{fill:#2C86D3;}
</style>
<rect x="11" y="3" class="dx_darkgray" width="4" height="4"/>
<g>
	<path class="st0" d="M6,17h6c0-0.3,0.1-0.7,0.2-1H7v-1h5.5c0.1-0.4,0.3-0.7,0.5-1H7v-1h6.8c0.4-0.4,0.8-0.7,1.2-1H6V17z"/>
	<path class="dx_darkgray" d="M12,17H6v-5h9c1-0.6,2.2-1,3.5-1c0.5,0,1,0.1,1.5,0.2V6l-3-3h-1v5H6V3H2v18h11c-0.6-1-1-2.2-1-3.5
		C12,17.3,12,17.2,12,17z"/>
	<path class="dx_darkgray" d="M7,13v1h6c0.2-0.4,0.5-0.7,0.8-1H7z"/>
	<path class="dx_darkgray" d="M7,15v1h5.2c0.1-0.3,0.2-0.7,0.3-1H7z"/>
</g>
<g>
	<path class="st1" d="M18.5,12c-3,0-5.5,2.5-5.5,5.5c0,3,2.5,5.5,5.5,5.5s5.5-2.5,5.5-5.5C24,14.5,21.5,12,18.5,12z M19,21h-1v-1h1
		V21z M20.4,16.3c-0.1,0.2-0.4,0.5-0.9,0.9c-0.2,0.2-0.5,0.5-0.5,0.8c0,0.2,0,1,0,1h-1c0-0.1,0-1,0-1c0-0.3,0.1-0.6,0.2-0.8
		s0.3-0.4,0.6-0.7s0.5-0.4,0.6-0.5c0.1-0.1,0.1-0.3,0.1-0.4c0-0.2-0.1-0.4-0.3-0.5s-0.4-0.2-0.7-0.2c-0.3,0-0.6,0.1-0.8,0.2
		s-0.4,0.5-0.4,0.9l-1,0c0-0.7,0.2-1.2,0.6-1.5s0.9-0.5,1.5-0.5c0.6,0,1.1,0.2,1.5,0.5s0.6,0.7,0.6,1.2
		C20.6,15.9,20.5,16.1,20.4,16.3z"/>
</g>
</svg>
