<?xml version="1.0" encoding="utf-8"?>
<!-- Generator: Adobe Illustrator 21.1.0, SVG Export Plug-In . SVG Version: 6.00 Build 0)  -->
<svg version="1.1" id="Layer_1" xmlns="http://www.w3.org/2000/svg" xmlns:xlink="http://www.w3.org/1999/xlink" x="0px" y="0px"
	 viewBox="0 0 24 24" enable-background="new 0 0 24 24" xml:space="preserve">
<polygon fill="#C6C6C6" points="3,18 3,16 3,12 3,8 7,8 7,4 12,4 14,4 14,9 16,9 16,2 12,2 7,2 5,2 1,6 1,8 1,12 1,16 1,20 10,20 
	10,18 "/>
<rect x="17" y="10" fill="#C6C6C6" width="2" height="2"/>
<path fill="#C6C6C6" d="M21,10h-1v3h-6v-3h-3v12h12V12L21,10z M20,20h-6v-5h6V20z"/>
<rect x="15" y="18" fill="#C6C6C6" width="4" height="1"/>
<rect x="15" y="16" fill="#C6C6C6" width="4" height="1"/>
</svg>
