<?xml version="1.0" encoding="utf-8"?>
<!-- Generator: Adobe Illustrator 21.1.0, SVG Export Plug-In . SVG Version: 6.00 Build 0)  -->
<svg version="1.1" id="Layer_1" xmlns="http://www.w3.org/2000/svg" xmlns:xlink="http://www.w3.org/1999/xlink" x="0px" y="0px"
	 viewBox="0 0 24 24" style="enable-background:new 0 0 24 24;" xml:space="preserve">
<style type="text/css">
	.dx_darkgray{fill:#787878;}
	.dx_green{fill:#2D9D54;}
	.st0{fill:none;}
</style>
<rect x="11" y="3" class="dx_darkgray" width="4" height="4"/>
<g>
	<path class="st0" d="M6,17h6v-1H7v-1h6v-1H7v-1h6.2c0.1-0.4,0.3-0.7,0.6-1H6V17z"/>
	<rect x="14" y="18" class="dx_darkgray" width="1" height="1"/>
	<path class="dx_darkgray" d="M12,20v-3H6v-5h7.8c0.5-0.6,1.3-1,2.2-1c0.1,0,0.1,0,0.2,0c0.1,0,0.1,0,0.2,0H20V6l-3-3h-1v5H6V3H2v18
		h10V20L12,20z"/>
	<path class="dx_darkgray" d="M7,13v1h6c0-0.4,0.1-0.7,0.2-1H7z"/>
	<polygon class="dx_darkgray" points="13,15 7,15 7,16 12,16 13,16 	"/>
</g>
<path class="dx_green" d="M16,15c0-0.6,0.4-1,1-1v-2c-1.7,0-3,1.3-3,3v1c0,0.6-0.4,1-1,1v2c0.6,0,1,0.4,1,1v1c0,1.7,1.3,3,3,3v-2
	c-0.6,0-1-0.4-1-1v-1c0-0.8-0.3-1.5-0.8-2c0.5-0.5,0.8-1.2,0.8-2V15z"/>
<path class="dx_green" d="M20,21c0,0.6-0.4,1-1,1v2c1.7,0,3-1.3,3-3v-1c0-0.6,0.4-1,1-1v-2c-0.6,0-1-0.4-1-1v-1c0-1.7-1.3-3-3-3v2
	c0.6,0,1,0.4,1,1v1c0,0.8,0.3,1.5,0.8,2c-0.5,0.5-0.8,1.2-0.8,2V21z"/>
</svg>
