<?xml version="1.0" encoding="utf-8"?>
<!-- Generator: Adobe Illustrator 21.0.2, SVG Export Plug-In . SVG Version: 6.00 Build 0)  -->
<!DOCTYPE svg PUBLIC "-//W3C//DTD SVG 1.1//EN" "http://www.w3.org/Graphics/SVG/1.1/DTD/svg11.dtd">
<svg version="1.1" id="Layer_1" xmlns="http://www.w3.org/2000/svg" xmlns:xlink="http://www.w3.org/1999/xlink" x="0px" y="0px"
	 viewBox="0 0 24 24" style="enable-background:new 0 0 24 24;" xml:space="preserve">
<style type="text/css">
	.dx_gray{fill:#C6C6C6;}
</style>
<path class="dx_gray" d="M6,6v12h12V6H6z M16,16H8V8h8V16z"/>
<polygon class="dx_gray" points="0,0 0,6 2,6 2,2 6,2 6,0 "/>
<polygon class="dx_gray" points="24,0 18,0 18,2 22,2 22,6 24,6 "/>
<polygon class="dx_gray" points="24,24 24,18 22,18 22,22 18,22 18,24 "/>
<polygon class="dx_gray" points="0,24 6,24 6,22 2,22 2,18 0,18 "/>
</svg>
