<?xml version="1.0" encoding="utf-8"?>
<!-- Generator: Adobe Illustrator 19.1.1, SVG Export Plug-In . SVG Version: 6.00 Build 0)  -->
<svg version="1.1" id="Layer_1" xmlns="http://www.w3.org/2000/svg" xmlns:xlink="http://www.w3.org/1999/xlink" x="0px" y="0px"
	 viewBox="0 0 24 24" style="enable-background:new 0 0 24 24;" xml:space="preserve">
<style type="text/css">
	.dx_gray{fill:#C6C6C6;}
</style>
<g>
	<g>
		<path class="dx_gray" d="M17,9V2H6L2,6v16h15v-3h5V9H17z M15,9H6v10h9v1H4V8h4V4h7V9z M15,16v1h-1h-1v-1v-5h1v5H15z M12,17h-1
			l-1-2l-1,2H8l1.5-3L8,11h1l1,2l1-2h1l-1.5,3L12,17z M18,17h-2v-1h2c0.6,0,1-0.2,1-0.7c0-0.8-1.1-0.8-2-1.2c-0.5-0.2-0.9-0.5-1-1.1
			v0c-0.1-1,0.3-1.6,1-1.8c0.3-0.1,0.6-0.2,1-0.2h1v1h-1c-0.7,0-1.1,0.2-1,0.8c0.1,0.8,3,0.5,3,2.2C20,16.6,19.1,17,18,17z"/>
	</g>
	<g>
		<path class="dx_gray" d="M17,9V2H6L2,6v16h15v-3h5V9H17z M15,9H6v10h9v1H4V8h4V4h7V9z M15,16v1h-1h-1v-1v-5h1v5H15z M12,17h-1
			l-1-2l-1,2H8l1.5-3L8,11h1l1,2l1-2h1l-1.5,3L12,17z M18,17h-2v-1h2c0.6,0,1-0.2,1-0.7c0-0.8-1.1-0.8-2-1.2c-0.5-0.2-0.9-0.5-1-1.1
			v0c-0.1-1,0.3-1.6,1-1.8c0.3-0.1,0.6-0.2,1-0.2h1v1h-1c-0.7,0-1.1,0.2-1,0.8c0.1,0.8,3,0.5,3,2.2C20,16.6,19.1,17,18,17z"/>
	</g>
</g>
</svg>
