<?xml version="1.0" encoding="utf-8"?>
<!-- Generator: Adobe Illustrator 21.1.0, SVG Export Plug-In . SVG Version: 6.00 Build 0)  -->
<svg version="1.1" id="Layer_1" xmlns="http://www.w3.org/2000/svg" xmlns:xlink="http://www.w3.org/1999/xlink" x="0px" y="0px"
	 viewBox="0 0 24 24" enable-background="new 0 0 24 24" xml:space="preserve">
<g>
	<g>
		<path fill="#CECECE" d="M19,20c-0.8,0-1.6-0.3-2.1-0.9L19,17h-3h-2v5l1.5-1.5c0.9,0.9,2.2,1.5,3.5,1.5c2.8,0,5-2.2,5-5h-2
			C22,18.1,20.7,20,19,20z"/>
		<path fill="#CECECE" d="M22.5,12.5C21.6,11.6,20.4,11,19,11c-2.8,0-5,2.2-5,5h2c0-1.7,1.3-3,3-3c0.8,0,1.6,0.3,2.1,0.9L19,16h3h2
			v-5L22.5,12.5z"/>
	</g>
	<g>
		<path fill="#CECECE" d="M19,20c-0.8,0-1.6-0.3-2.1-0.9L19,17h-3h-2v5l1.5-1.5c0.9,0.9,2.2,1.5,3.5,1.5c2.8,0,5-2.2,5-5h-2
			C22,18.1,20.7,20,19,20z"/>
		<path fill="#CECECE" d="M22.5,12.5C21.6,11.6,20.4,11,19,11c-2.8,0-5,2.2-5,5h2c0-1.7,1.3-3,3-3c0.8,0,1.6,0.3,2.1,0.9L19,16h3h2
			v-5L22.5,12.5z"/>
	</g>
</g>
<path fill="#CECECE" d="M14.5,3.5c-2-2-5.1-2-7.1,0C6,4.9,5.6,7.1,6.4,8.9l-6.1,6.7c-0.6,0.6,0,1.4,0,1.4h4l1-1l0.1-2h1.9l2.3-2.3
	c1.7,0.5,3.7,0.2,5-1.2C16.5,8.6,16.5,5.4,14.5,3.5z M12.4,8.4c-0.8,0.8-2,0.8-2.8,0c-0.8-0.8-0.8-2,0-2.8c0.8-0.8,2-0.8,2.8,0
	C13.2,6.4,13.2,7.6,12.4,8.4z"/>
</svg>
