<?xml version="1.0" encoding="utf-8"?>
<!-- Generator: Adobe Illustrator 19.1.1, SVG Export Plug-In . SVG Version: 6.00 Build 0)  -->
<svg version="1.1" id="Layer_1" xmlns="http://www.w3.org/2000/svg" xmlns:xlink="http://www.w3.org/1999/xlink" x="0px" y="0px"
	 viewBox="0 0 24 24" style="enable-background:new 0 0 24 24;" xml:space="preserve">
<style type="text/css">
	.dx_gray{fill:#C6C6C6;}
	.st0{fill:#FFFFFF;}
</style>
<g>
	<g>
		<g>
			<path class="dx_gray" d="M10,12v2c0.6,0,1-0.4,1-1C11,12.4,10.5,12,10,12z"/>
			<path class="dx_gray" d="M17,9V2H6L2,6v16h15v-3h5V9H17z M13,12v-1h3v1h-1h0v5h-1v-5H13z M15,20H4L4,8h4V4h7v5H6v10h9V20z M12,17
				h-1l-1-1.5V17H9v-6h1c1.1,0,2,0.9,2,2c0,0.9-0.6,1.6-1.4,1.9L12,17z M20,12h-2v2h1v1h-1v2h-1h0v-6h0h1h2V12z"/>
		</g>
		<rect x="17" y="11" class="dx_gray" width="0" height="6"/>
	</g>
	<g>
		<g>
			<path class="dx_gray" d="M10,12v2c0.6,0,1-0.4,1-1C11,12.4,10.5,12,10,12z"/>
			<path class="dx_gray" d="M17,9V2H6L2,6v16h15v-3h5V9H17z M13,12v-1h3v1h-1h0v5h-1v-5H13z M15,20H4L4,8h4V4h7v5H6v10h9V20z M12,17
				h-1l-1-1.5V17H9v-6h1c1.1,0,2,0.9,2,2c0,0.9-0.6,1.6-1.4,1.9L12,17z M20,12h-2v2h1v1h-1v2h-1h0v-6h0h1h2V12z"/>
		</g>
		<rect x="17" y="11" class="st0" width="0" height="6"/>
	</g>
</g>
</svg>
