<?xml version="1.0" encoding="utf-8"?>
<!-- Generator: Adobe Illustrator 21.1.0, SVG Export Plug-In . SVG Version: 6.00 Build 0)  -->
<svg version="1.1" id="Layer_1" xmlns="http://www.w3.org/2000/svg" xmlns:xlink="http://www.w3.org/1999/xlink" x="0px" y="0px"
	 viewBox="0 0 16 16" enable-background="new 0 0 16 16" xml:space="preserve">
<g>
	<polygon fill="none" points="13,5 11,5 11,6 10,6 10,5 5,5 5,8 2,8 2,14 14,14 14,6 13,6 	"/>
	<rect x="13" y="5" fill="#FFFFFF" width="1" height="1"/>
	<path fill="#C6C6C6" d="M14,3v2v1v8H2V8h3V5h5V3H9c0-0.6,0.4-1,1-1s1,0.4,1,1v6c0,0.6-0.4,1-1,1S9,9.6,9,9V6H7v3c0,1.7,1.3,3,3,3
		s3-1.3,3-3V3c0-1.7-1.3-3-3-3S7,1.3,7,3H3L0,6v10h16V3H14z"/>
</g>
</svg>
