<?xml version="1.0" encoding="utf-8"?>
<!-- Generator: Adobe Illustrator 21.1.0, SVG Export Plug-In . SVG Version: 6.00 Build 0)  -->
<svg version="1.1" id="Layer_1" xmlns="http://www.w3.org/2000/svg" xmlns:xlink="http://www.w3.org/1999/xlink" x="0px" y="0px"
	 viewBox="0 0 16 16" enable-background="new 0 0 16 16" xml:space="preserve">
<rect x="4" y="6" fill="#787878" width="8" height="1"/>
<rect x="4" y="8" fill="#787878" width="8" height="1"/>
<rect x="4" y="10" fill="#787878" width="4" height="1"/>
<g>
	<g>
		<path fill="#787878" d="M1,1v14h14V1H1z M4,2c0.6,0,1,0.4,1,1c0,0.6-0.4,1-1,1S3,3.6,3,3C3,2.4,3.4,2,4,2z M13,13H3V5h10V13z
			 M12,4c-0.6,0-1-0.4-1-1c0-0.6,0.4-1,1-1s1,0.4,1,1C13,3.6,12.6,4,12,4z"/>
	</g>
	<g>
		<path fill="#787878" d="M1,1v14h14V1H1z M4,2c0.6,0,1,0.4,1,1c0,0.6-0.4,1-1,1S3,3.6,3,3C3,2.4,3.4,2,4,2z M13,13H3V5h10V13z
			 M12,4c-0.6,0-1-0.4-1-1c0-0.6,0.4-1,1-1s1,0.4,1,1C13,3.6,12.6,4,12,4z"/>
	</g>
</g>
</svg>
