<?xml version="1.0" encoding="utf-8"?>
<!-- Generator: Adobe Illustrator 19.1.1, SVG Export Plug-In . SVG Version: 6.00 Build 0)  -->
<svg version="1.1" id="Layer_1" xmlns="http://www.w3.org/2000/svg" xmlns:xlink="http://www.w3.org/1999/xlink" x="0px" y="0px"
	 viewBox="0 0 16 16" style="enable-background:new 0 0 16 16;" xml:space="preserve">
<style type="text/css">
	.dx_darkgray{fill:#787878;}
</style>
<path class="dx_darkgray" d="M7,3c0-1.1-1.6-2-3.5-2S0,1.9,0,3v1c0,0.4,0.2,0.7,0.5,1C0.2,5.3,0,5.6,0,6v1c0,0.4,0.2,0.7,0.5,1
	C0.2,8.3,0,8.6,0,9v1c0,0.4,0.2,0.7,0.5,1C0.2,11.3,0,11.6,0,12v1c0,1.1,1.6,2,3.5,2S7,14.1,7,13v-1c0-0.4-0.2-0.7-0.5-1
	C6.8,10.7,7,10.4,7,10V9c0-0.4-0.2-0.7-0.5-1C6.8,7.7,7,7.4,7,7V6c0-0.4-0.2-0.7-0.5-1C6.8,4.7,7,4.4,7,4V3z M3.5,2C4.9,2,6,2.4,6,3
	c0,0.6-1.1,1-2.5,1S1,3.6,1,3C1,2.4,2.1,2,3.5,2z M6,6c0,0.6-1.1,1-2.5,1S1,6.6,1,6c0-0.2,0.1-0.3,0.3-0.5C1.9,5.8,2.7,6,3.5,6
	s1.6-0.2,2.2-0.5C5.9,5.7,6,5.8,6,6z M6,9c0,0.6-1.1,1-2.5,1S1,9.6,1,9c0-0.2,0.1-0.3,0.3-0.5C1.9,8.8,2.7,9,3.5,9s1.6-0.2,2.2-0.5
	C5.9,8.7,6,8.8,6,9z M3.5,13C2.1,13,1,12.6,1,12c0-0.2,0.1-0.3,0.3-0.5C1.9,11.8,2.7,12,3.5,12s1.6-0.2,2.2-0.5
	C5.9,11.7,6,11.8,6,12C6,12.6,4.9,13,3.5,13z"/>
<path class="dx_darkgray" d="M16,9c0-1.1-1.6-2-3.5-2S9,7.9,9,9v1c0,0.4,0.2,0.7,0.5,1C9.2,11.3,9,11.6,9,12v1c0,1.1,1.6,2,3.5,2
	s3.5-0.9,3.5-2v-1c0-0.4-0.2-0.7-0.5-1c0.3-0.3,0.5-0.6,0.5-1V9z M12.5,8C13.9,8,15,8.4,15,9c0,0.6-1.1,1-2.5,1S10,9.6,10,9
	C10,8.4,11.1,8,12.5,8z M12.5,13c-1.4,0-2.5-0.4-2.5-1c0-0.2,0.1-0.3,0.3-0.5c0.6,0.3,1.4,0.5,2.2,0.5s1.6-0.2,2.2-0.5
	c0.2,0.1,0.3,0.3,0.3,0.5C15,12.6,13.9,13,12.5,13z"/>
</svg>
