<?xml version="1.0" encoding="utf-8"?>
<!-- Generator: Adobe Illustrator 21.1.0, SVG Export Plug-In . SVG Version: 6.00 Build 0)  -->
<svg version="1.1" id="Layer_1" xmlns="http://www.w3.org/2000/svg" xmlns:xlink="http://www.w3.org/1999/xlink" x="0px" y="0px"
	 viewBox="0 0 16 16" enable-background="new 0 0 16 16" xml:space="preserve">
<path fill="#C6C6C6" d="M8,0C6.9,0,6,0.9,6,2c0,1.7,0.9,3,2,3s2-1.3,2-3C10,0.9,9.1,0,8,0z"/>
<path fill="#C6C6C6" d="M10,6H9L8,7L7,6H6C4.9,6,4,6.9,4,8c0,0.6,0.4,1,1,1h6c0.6,0,1-0.4,1-1C12,6.9,11.1,6,10,6z"/>
<polygon fill="#C6C6C6" points="1,10 1,12 3,12 3,16 13,16 13,12 15,12 15,10 "/>
</svg>
