<?xml version="1.0" encoding="utf-8"?>
<!-- Generator: Adobe Illustrator 21.1.0, SVG Export Plug-In . SVG Version: 6.00 Build 0)  -->
<svg version="1.1" id="Layer_1" xmlns="http://www.w3.org/2000/svg" xmlns:xlink="http://www.w3.org/1999/xlink" x="0px" y="0px"
	 viewBox="0 0 16 16" enable-background="new 0 0 16 16" xml:space="preserve">
<rect x="4" y="12" fill="#FFFFFF" width="4" height="1"/>
<path fill="#FFFFFF" d="M10,3C9.4,3,9,3.4,9,4c0,1.1,0.4,2,1,2s1-0.9,1-2C11,3.4,10.6,3,10,3z"/>
<path fill="#FFFFFF" d="M12,9H8v0c0-1.1,0.9-2,2-2h0C11.1,7,12,7.9,12,9L12,9z"/>
<rect x="4" y="10" fill="#FFFFFF" width="4" height="1"/>
<path fill="#FFFFFF" d="M4,0L1,3v13h14V0H4z M13,14H3V5h3V2h7V14z"/>
</svg>
