<?xml version="1.0" encoding="utf-8"?>
<!-- Generator: Adobe Illustrator 19.1.1, SVG Export Plug-In . SVG Version: 6.00 Build 0)  -->
<svg version="1.1" id="Layer_1" xmlns="http://www.w3.org/2000/svg" xmlns:xlink="http://www.w3.org/1999/xlink" x="0px" y="0px"
	 viewBox="0 0 16 16" style="enable-background:new 0 0 16 16;" xml:space="preserve">
<style type="text/css">
	.dx_white{fill:#FFFFFF;}
</style>
<circle class="dx_white" cx="2.5" cy="13.5" r="1.5"/>
<g>
	<g>
		<path class="dx_white" d="M1,9v2h3c0-0.2,0-0.3,0-0.5C4,10,4.1,9.5,4.2,9H1z"/>
		<path class="dx_white" d="M13,1l-1.6,4.3c0.5,0.2,1,0.5,1.5,0.8L14,3h2V1H13z"/>
		<path class="dx_white" d="M2,8h2.6c0.9-1.8,2.8-3,4.9-3c0.2,0,0.5,0,0.7,0L11,3H0L2,8z"/>
	</g>
	<g>
		<path class="dx_white" d="M1,9v2h3c0-0.2,0-0.3,0-0.5C4,10,4.1,9.5,4.2,9H1z"/>
		<path class="dx_white" d="M13,1l-1.6,4.3c0.5,0.2,1,0.5,1.5,0.8L14,3h2V1H13z"/>
		<path class="dx_white" d="M2,8h2.6c0.9-1.8,2.8-3,4.9-3c0.2,0,0.5,0,0.7,0L11,3H0L2,8z"/>
	</g>
</g>
<path class="dx_white" d="M9.5,6C7,6,5,8,5,10.5S7,15,9.5,15s4.5-2,4.5-4.5S12,6,9.5,6z M11.1,12.5c-0.2,0.3-0.6,0.4-1.1,0.5v1H9v-1
	c-0.8-0.1-1.4-0.6-1.5-1.3l1.1-0.2c0.1,0.5,0.5,0.7,1,0.7c0.3,0,0.5-0.1,0.6-0.2s0.2-0.2,0.2-0.4c0-0.1-0.1-0.3-0.2-0.3
	s-0.3-0.2-0.7-0.2c-0.7-0.2-1.2-0.4-1.4-0.6c-0.2-0.3-0.3-0.6-0.3-0.9c0-0.4,0.2-0.7,0.4-1C8.4,8.2,8.7,8.1,9,8V7h1v1
	c0.7,0.1,1.2,0.5,1.4,1.1l-1,0.3C10.3,9.1,10,8.9,9.5,8.9C9.1,8.9,8.9,9,8.9,9.3c0,0.1,0,0.2,0.1,0.3s0.3,0.2,0.6,0.2
	c0.5,0.1,0.9,0.2,1.1,0.3c0.2,0.1,0.4,0.3,0.6,0.5s0.2,0.5,0.2,0.8C11.5,11.8,11.4,12.2,11.1,12.5z"/>
</svg>
