<?xml version="1.0" encoding="utf-8"?>
<!-- Generator: Adobe Illustrator 21.1.0, SVG Export Plug-In . SVG Version: 6.00 Build 0)  -->
<svg version="1.1" id="Layer_1" xmlns="http://www.w3.org/2000/svg" xmlns:xlink="http://www.w3.org/1999/xlink" x="0px" y="0px"
	 viewBox="0 0 24 24" enable-background="new 0 0 24 24" xml:space="preserve">
<g>
	<path fill="none" d="M12,9c2.8,0,5-2.7,5-6H7C7,6.3,9.2,9,12,9z"/>
	<path fill="#787878" d="M7,17c0-3.3,2.2-6,5-6h4.6c-0.4-0.4-0.8-0.7-1.2-1C17.5,8.6,19,6,19,3h2V1H3v2h2c0,3,1.5,5.6,3.6,7
		C6.5,11.4,5,14,5,17H3v2h10.5l-0.4-2H7z M7,3h10c0,3.3-2.2,6-5,6S7,6.3,7,3z"/>
</g>
<polygon fill="#BF0707" points="20,20 23,14 19,14 18,12 13,12 15,23 17,23 16,18 19,18 "/>
</svg>
