<?xml version="1.0" encoding="utf-8"?>
<!-- Generator: Adobe Illustrator 21.1.0, SVG Export Plug-In . SVG Version: 6.00 Build 0)  -->
<svg version="1.1" id="Layer_1" xmlns="http://www.w3.org/2000/svg" xmlns:xlink="http://www.w3.org/1999/xlink" x="0px" y="0px"
	 viewBox="0 0 16 16" enable-background="new 0 0 16 16" xml:space="preserve">
<path fill="#FFFFFF" d="M1,0v2h1.1c0.2,1.7,1,3.1,2.2,4c-1.1,0.9-1.9,2.3-2.2,4H1v2h6l-0.5-2H4.1C4.4,8.3,5.6,7,7,7
	c0.8,0,1.4,0.4,2,1h2.4c-0.4-0.8-0.9-1.5-1.6-2c1.1-0.9,1.9-2.3,2.2-4H13V0H1z M7,5C5.6,5,4.4,3.7,4.1,2h5.8C9.6,3.7,8.4,5,7,5z"/>
<polygon fill="#FFFFFF" points="13,14 15,10 11,10 10,9 7,9 9,16 11,16 10,13 12,13 "/>
</svg>
